<svg width="220" height="44" viewBox="0 0 220 44" fill="none" xmlns="http://www.w3.org/2000/svg">
<path d="M14.9378 32.3909L14.8048 32.1511L14.7734 32.0913L14.742 32.0296L14.6476 31.85L14.5882 31.7303L14.5586 31.6686L14.5307 31.6088L14.5008 31.549L14.4449 31.4293L14.4169 31.3678L14.2859 31.0688L14.1638 30.7702L14.1183 30.6507L14.0956 30.5927L14.0728 30.533L14.0518 30.4733L14.0292 30.4135L14.0082 30.3556L13.9663 30.2362L13.9472 30.1783L13.928 30.1187L13.9087 30.0607L13.8895 30.0011L13.8509 29.8853L13.8335 29.8257L13.7636 29.5943L13.7321 29.4785L13.7146 29.4207L13.7007 29.3629L13.6849 29.3068L13.6691 29.2489L13.655 29.1912L13.6393 29.135L13.6252 29.0772L13.613 29.0212L13.599 28.9652L13.5851 28.9073L13.5603 28.7953L13.5463 28.7392L13.5358 28.6831L13.5112 28.5712L13.5006 28.5169L13.4884 28.4609L13.4779 28.4048L13.4674 28.3507L13.4567 28.2947L13.4479 28.2404L13.4373 28.1861L13.4267 28.1302L13.4002 27.9675L13.3913 27.915L13.3738 27.8065L13.3668 27.7523L13.3577 27.6999L13.3507 27.6475L13.3437 27.5933L13.322 27.436L13.3168 27.3837L13.3096 27.3311L13.3042 27.2788L13.2971 27.2264L13.2917 27.1756L13.2862 27.1233L13.2808 27.0726L13.2755 27.0202L13.2701 26.9695L13.2663 26.9189L13.2555 26.8175L13.2443 26.6656L13.2389 26.615L13.2352 26.5661L13.2357 26.5539L13.1807 26.518L13.057 26.4319L13.0139 26.4031L12.9729 26.3744L12.9315 26.344L12.8905 26.3153L12.8475 26.2849L12.8064 26.2543L12.7634 26.2239L12.7222 26.1934L12.6794 26.163L12.6383 26.1308L12.5954 26.1004L12.5542 26.0681L12.5113 26.036L12.4704 26.0037L12.3417 25.9072L12.3007 25.8733L12.2579 25.8393L12.215 25.8071L12.1722 25.7732L12.1312 25.7392L12.0884 25.7035L12.0456 25.6695L11.9175 25.5624L11.8764 25.5268L11.7909 25.4553L11.5774 25.2681L11.5365 25.2306L11.3233 25.0347L11.2807 24.9939L11.2382 24.9545L11.1972 24.9138L11.1121 24.8319L11.0696 24.7892L11.027 24.7483L10.9862 24.7058L10.9011 24.6203L10.8178 24.5334L10.7771 24.489L10.7348 24.4462L10.5684 24.2652L10.4871 24.173L10.4445 24.1269L10.4039 24.0807L10.2009 23.8415L10.1197 23.7422L10.0809 23.6926L9.99977 23.5934L9.96105 23.5421L9.92045 23.4909L9.88189 23.4394L9.8412 23.3881L9.80274 23.3368L9.60917 23.0715L9.57042 23.0167L9.53357 22.962L9.49482 22.9072L9.42119 22.7976L9.38261 22.7411L9.2353 22.5151L9.20013 22.4568L9.16343 22.3986L9.12826 22.3404L9.09155 22.2821L9.05672 22.2222L9.02155 22.164L8.98671 22.104L8.97159 22.0793L8.96041 22.0982L8.92525 22.1587L8.89173 22.2208L8.85648 22.2811L8.82116 22.3431L8.7878 22.4052L8.75404 22.4692L8.72069 22.5312L8.68709 22.5951L8.65357 22.6572L8.62184 22.7209L8.58801 22.7867L8.55637 22.8505L8.52441 22.9161L8.49261 22.9801L8.42878 23.1114L8.3987 23.1787L8.36854 23.2443L8.27798 23.4465L8.24954 23.514L8.21939 23.5831L8.19095 23.6506L8.16244 23.7198L8.13572 23.7891L8.10711 23.8582L8.08049 23.9292L8.05368 23.9984L8.00017 24.1403L7.97525 24.2112L7.94847 24.2823L7.92338 24.3533L7.89839 24.426L7.87503 24.4988L7.84987 24.5716L7.82675 24.6425L7.80339 24.7169L7.77986 24.7898L7.75839 24.8644L7.73494 24.937L7.69174 25.0861L7.67173 25.1625L7.6501 25.2371L7.63033 25.3116L7.61033 25.3879L7.59212 25.4643L7.57212 25.5407L7.53587 25.6934L7.51947 25.7698L7.50126 25.8478L7.48478 25.926L7.46837 26.0024L7.45196 26.0804L7.43728 26.1587L7.42243 26.2386L7.40782 26.3167L7.3946 26.3967L7.37999 26.4748L7.35389 26.6347L7.30878 26.9546L7.29925 27.0365L7.2897 27.1164L7.27055 27.2799L7.255 27.4436L7.24897 27.5254L7.24098 27.6072L7.22902 27.7725L7.2117 28.1034L7.20384 28.3543L7.20104 28.607L7.20456 28.9453L7.20719 29.0291L7.20992 29.1146L7.21418 29.2001L7.21861 29.2839L7.22739 29.4549L7.24567 29.7116L7.26925 29.9683L7.2733 30.0032L7.29581 30.0193L7.43639 30.1196L7.57721 30.2166L7.64937 30.265L7.7199 30.3118L7.79206 30.3602L7.8626 30.407L8.15168 30.5869L8.36868 30.7167L8.44276 30.7581L8.51531 30.7996L8.58933 30.8413L8.66178 30.8811L8.73587 30.9225L8.80849 30.9606L8.88265 31.0003L9.10546 31.1145L9.25392 31.1871L9.32832 31.2219L9.40272 31.2581L9.47703 31.2926L9.55313 31.3272L9.77636 31.4257L9.85271 31.4569L9.92692 31.4897L10.0032 31.5208L10.0778 31.5501L10.154 31.5796L10.3032 31.6382L10.3794 31.6676L10.4539 31.6951L10.5304 31.7228L10.6068 31.7487L10.756 31.8004L10.8324 31.8264L10.907 31.8504L11.06 31.8987L11.2095 31.9435L11.2859 31.9659L11.3607 31.9882L11.4372 32.009L11.5869 32.0502L11.6634 32.0709L11.8131 32.1086L11.8898 32.1258L11.9647 32.143L12.0396 32.1617L12.1144 32.1772L12.1893 32.1944L12.4142 32.2406L12.6394 32.2817L12.7126 32.2952L12.7876 32.3071L12.8608 32.3192L12.9361 32.3309L13.0093 32.343L13.0845 32.353L13.231 32.3733L13.3046 32.3817L13.3797 32.392L13.453 32.4003L13.5266 32.4069L13.5982 32.4153L13.8187 32.4352L13.8905 32.442L13.964 32.4469L14.1075 32.4566L14.1794 32.4598L14.2511 32.4646L14.4666 32.4742L14.821 32.481L14.9613 32.4803L14.9892 32.4807L14.9728 32.4507L14.9378 32.3909ZM9.03476 21.9748L9.07001 21.9145L9.10689 21.8559L9.14213 21.7972L9.25287 21.6216L9.28967 21.5647L9.32665 21.5063L9.36525 21.4496L9.40222 21.3926L9.44075 21.3377L9.47756 21.2809L9.67036 21.0055L9.71062 20.9524L9.74914 20.8989L9.78924 20.8459L9.82777 20.7924L10.0692 20.4833L10.1494 20.3838L10.1913 20.334L10.2315 20.2842L10.2733 20.2361L10.3134 20.1865L10.3553 20.1384L10.3955 20.0905L10.4373 20.0424L10.4791 19.9962L10.5209 19.9481L10.6463 19.8093L10.6881 19.7649L10.7298 19.7186L10.8133 19.6296L10.8567 19.5851L10.8986 19.5406L10.9402 19.4978L10.9837 19.4553L11.0254 19.4107L11.0672 19.3678L11.1105 19.3269L11.2806 19.1593L11.324 19.12L11.3657 19.0789L11.4091 19.038L11.4957 18.9596L11.5373 18.9203L11.7087 18.7648L11.8387 18.6523L11.8801 18.6166L11.9234 18.579L12.0097 18.5073L12.0513 18.4717L12.1376 18.4001L12.181 18.3661L12.2242 18.3303L12.2656 18.2963L12.3519 18.2281L12.3932 18.1958L12.4363 18.1619L12.4795 18.1296L12.5208 18.0955L12.6071 18.0309L12.6485 17.9986L12.6916 17.9664L12.7329 17.9357L12.7761 17.9034L12.819 17.8729L12.8605 17.8425L12.9035 17.8117L12.9862 17.7507L13.0291 17.72L13.0703 17.6912L13.1134 17.6624L13.1548 17.632L13.2784 17.5453L13.2802 17.5453L13.2826 17.528L13.2858 17.4793L13.301 17.3279L13.3043 17.2775L13.3094 17.227L13.3146 17.1747L13.3215 17.1242L13.3264 17.0738L13.3317 17.0217L13.3386 16.9713L13.3436 16.9191L13.3781 16.6581L13.385 16.6043L13.392 16.5521L13.4007 16.4982L13.4093 16.4461L13.4161 16.3922L13.425 16.3382L13.4336 16.2861L13.4596 16.1245L13.4701 16.0689L13.4806 16.0151L13.4893 15.9612L13.5103 15.85L13.5208 15.7962L13.5314 15.7405L13.5435 15.6851L13.5541 15.6295L13.6032 15.4072L13.6154 15.3499L13.6294 15.2945L13.6418 15.2372L13.6557 15.1816L13.6839 15.0671L13.6979 15.0117L13.712 14.9542L13.7279 14.8971L13.742 14.8381L13.7578 14.781L13.7754 14.7237L13.7912 14.6666L13.807 14.6075L13.8247 14.5504L13.8405 14.4933L13.8758 14.3752L13.895 14.3182L13.9127 14.2592L13.9321 14.2002L13.9496 14.1414L13.9708 14.0825L14.0095 13.9646L14.0307 13.9057L14.0501 13.8469L14.0713 13.788L14.0942 13.7274L14.1365 13.6096L14.1594 13.5491L14.1822 13.4903L14.2052 13.4297L14.2298 13.371L14.2527 13.3104L14.2775 13.2516L14.3268 13.1306L14.3532 13.07L14.3779 13.0112L14.4573 12.8297L14.5983 12.5273L14.6281 12.4668L14.6565 12.4064L14.6881 12.346L14.7481 12.2252L14.8116 12.1044L14.8433 12.0422L14.8767 11.9819L14.9085 11.9214L14.9754 11.8006L15.0106 11.7403L15.044 11.68L15.0793 11.6197L15.094 11.5955L15.0853 11.5953L15.0151 11.5957L14.9449 11.5978L14.8729 11.5982L14.7324 11.6025L14.6604 11.6046L14.5902 11.6084L14.5181 11.6121L14.4478 11.616L14.3036 11.6238L14.1596 11.635L14.0857 11.6405L14.0134 11.6478L13.9413 11.6534L13.8692 11.6606L13.7952 11.6679L13.7231 11.6769L13.6491 11.6843L13.5752 11.6933L13.503 11.704L13.4288 11.713L13.3549 11.7239L13.281 11.7329L13.2068 11.7452L13.1328 11.7561L12.9106 11.7937L12.8347 11.8078L12.7607 11.8204L12.6865 11.8346L12.6106 11.8505L12.5365 11.865L12.4605 11.8807L12.3863 11.8967L12.3103 11.9144L12.236 11.9305L12.1601 11.9481L12.0859 11.9659L11.9338 12.0048L11.8595 12.0242L11.7834 12.0436L11.6314 12.0861L11.5569 12.1072L11.4808 12.1285L11.3285 12.1743L11.254 12.1972L11.0255 12.2714L10.951 12.2978L10.7983 12.3506L10.7239 12.377L10.5712 12.4333L10.4967 12.4615L10.4202 12.4914L10.3439 12.5196L10.2694 12.5512L10.193 12.5812L10.1182 12.6128L10.0419 12.6444L9.96711 12.676L9.89071 12.7094L9.74118 12.7761L9.66481 12.8115L9.44037 12.9169L9.2907 12.9906L9.2159 13.0294L9.14097 13.0662L9.06786 13.1049L8.99288 13.1453L8.91798 13.184L8.84471 13.2243L8.76982 13.2665L8.69655 13.3068L8.55005 13.3914L8.47499 13.4352L8.40181 13.4772L8.32839 13.5211L8.25687 13.5668L8.18345 13.6107L8.11005 13.6581L8.03852 13.7038L7.96519 13.7494L7.89342 13.7969L7.82175 13.8461L7.75005 13.8934L7.60671 13.9919L7.53666 14.0428L7.46489 14.0919L7.39485 14.1428L7.35166 14.1751L7.35146 14.1855L7.33209 14.356L7.32421 14.443L7.31624 14.5283L7.31023 14.6136L7.3021 14.699L7.296 14.7841L7.29162 14.8695L7.28545 14.9549L7.28108 15.0403L7.27831 15.1255L7.27394 15.2109L7.27134 15.2945L7.2704 15.3801L7.2678 15.4636L7.26597 15.6327L7.2668 15.7164L7.266 15.8L7.26683 15.8837L7.27489 16.135L7.2776 16.217L7.28203 16.3008L7.28473 16.3828L7.29094 16.4647L7.2952 16.5487L7.30771 16.7127L7.31408 16.793L7.32993 16.9571L7.34594 17.118L7.35574 17.2001L7.37516 17.3608L7.38684 17.4396L7.40985 17.6004L7.42143 17.679L7.47479 17.9938L7.4898 18.0726L7.50505 18.1495L7.52006 18.2283L7.53514 18.3054L7.58596 18.5365L7.60291 18.6118L7.6215 18.6888L7.67759 18.9149L7.7186 19.0656L7.78005 19.2864L7.8469 19.5075L7.86913 19.5793L7.96545 19.8671L7.98966 19.9373L8.01532 20.0093L8.09297 20.2199L8.11904 20.2885L8.14674 20.3571L8.17428 20.4274L8.22967 20.5643L8.25728 20.6312L8.28505 20.6996L8.403 20.9671L8.43256 21.032L8.52654 21.2274L8.55602 21.2926L8.58918 21.3577L8.65195 21.4844L8.68501 21.5478L8.71814 21.6094L8.7513 21.6729L8.85069 21.8577L8.88554 21.9196L8.91884 21.9796L8.97375 22.0766L8.99772 22.035L9.03476 21.9748ZM26.9538 32.402L26.6085 32.3952L26.3351 32.3829L26.2685 32.3782L26.2002 32.3751L26.1338 32.3704L26.0654 32.3656L25.999 32.3607L25.9325 32.3542L25.8659 32.3495L25.7995 32.3428L25.7348 32.3364L25.6683 32.3298L25.6037 32.3217L25.5372 32.3152L25.2786 32.2823L25.2155 32.274L25.151 32.2641L25.0882 32.2559L25.0236 32.2458L24.9624 32.236L24.8978 32.2259L24.8368 32.2143L24.7738 32.2044L24.7112 32.1928L24.6501 32.1811L24.5873 32.1711L24.5263 32.1577L24.4042 32.1344L24.345 32.121L24.2839 32.1094L24.223 32.0961L24.0452 32.0561L23.986 32.0409L23.9268 32.0275L23.8675 32.0125L23.8101 31.9992L23.751 31.984L23.5213 31.9237L23.4657 31.907L23.4082 31.892L23.2971 31.8584L23.2414 31.8434L23.0744 31.793L23.0206 31.7745L22.965 31.7578L22.9111 31.7411L22.8574 31.7226L22.8034 31.7057L22.7497 31.6872L22.6975 31.6689L22.6438 31.6504L22.5918 31.632L22.5379 31.6136L22.3817 31.5582L22.3315 31.5397L22.2794 31.5196L22.229 31.5011L22.1789 31.481L22.1268 31.4626L22.0766 31.4423L22.0281 31.4223L21.9777 31.4038L21.9275 31.3838L21.8306 31.3435L21.7803 31.3232L21.6348 31.263L21.5881 31.2411L21.5395 31.2209L21.4929 31.2009L21.4462 31.179L21.3528 31.1389L21.3059 31.1171L21.2592 31.097L21.2126 31.0752L21.1676 31.0551L21.1209 31.0332L21.0759 31.0115L21.0656 31.0078L21.0601 31.0094L21.0139 31.0311L20.9693 31.053L20.8304 31.1183L20.7825 31.1401L20.7363 31.16L20.688 31.1817L20.6419 31.2036L20.5938 31.2252L20.5458 31.2453L20.4498 31.2887L20.4016 31.3087L20.3519 31.3304L20.304 31.3504L20.2541 31.372L20.1546 31.412L20.1047 31.4336L20.0054 31.4735L19.9024 31.5134L19.8525 31.5334L19.7496 31.5732L19.6963 31.5931L19.6449 31.6112L19.5917 31.6312L19.5403 31.6493L19.4337 31.689L19.3272 31.7254L19.2722 31.7434L19.2191 31.7617L18.9444 31.8522L18.8894 31.8685L18.8327 31.8866L18.7194 31.9193L18.6627 31.9374L18.5494 31.9701L18.491 31.9863L18.4344 32.0009L18.3176 32.0335L18.2009 32.0626L18.1425 32.0789L18.0223 32.108L17.9639 32.1225L17.9039 32.1353L17.8438 32.1499L17.782 32.1625L17.7219 32.1771L17.6619 32.1899L17.4763 32.2282L17.4147 32.239L17.3529 32.2518L17.2912 32.2628L17.1006 32.2958L17.0389 32.3068L16.9753 32.3178L16.9102 32.327L16.8467 32.3361L16.7813 32.3453L16.7181 32.3563L16.6527 32.3637L16.5876 32.373L16.5225 32.3804L16.4571 32.3896L16.3904 32.3969L16.3253 32.4044L16.2583 32.4119L16.1931 32.4177L16.1264 32.425L15.9258 32.442L15.8574 32.4459L15.7904 32.4516L15.6535 32.4594L15.5866 32.4633L15.5162 32.4673L15.4477 32.4693L15.3793 32.4732L15.3107 32.4753L15.2404 32.4775L15.1721 32.4779L15.1018 32.4801L15.0317 32.4804L14.9895 32.4812L15.0078 32.5114L15.0428 32.5713L15.0796 32.6312L15.1145 32.6912L15.2246 32.8712L15.3401 33.0513L15.3786 33.1096L15.419 33.1696L15.4574 33.2297L15.4977 33.288L15.5397 33.348L15.58 33.4063L15.622 33.4665L15.7059 33.5832L15.7497 33.6432L15.8811 33.8185L15.9267 33.8768L15.9704 33.9353L16.0177 33.992L16.1089 34.1089L16.1562 34.1656L16.2036 34.2239L16.2527 34.2807L16.2999 34.3392L16.3981 34.4526L16.449 34.5094L16.4982 34.5661L16.5491 34.6229L16.5999 34.678L16.6508 34.7348L16.7036 34.7899L16.7562 34.8465L16.8614 34.9568L17.0247 35.1222L17.0809 35.1755L17.1353 35.2307L17.1915 35.284L17.2477 35.3392L17.3057 35.3926L17.3619 35.446L17.42 35.4976L17.4781 35.5511L17.5378 35.6028L17.5957 35.6562L17.7152 35.7598L17.7769 35.8115L17.8367 35.8631L17.8984 35.9132L17.9599 35.965L18.0866 36.065L18.1481 36.115L18.2133 36.1651L18.2766 36.2135L18.3399 36.2635L18.4051 36.3118L18.472 36.3602L18.5373 36.4067L18.6024 36.4551L18.6694 36.5035L18.8033 36.5968L18.8722 36.6434L18.9408 36.6884L19.0096 36.7349L19.147 36.8248L19.2177 36.8698L19.2882 36.9131L19.3587 36.9579L19.4292 37.0012L19.5017 37.0444L19.574 37.086L19.6463 37.1292L19.7188 37.1706L19.7928 37.2123L19.8654 37.2538L20.0136 37.3333L20.0896 37.375L20.1639 37.413L20.2399 37.4527L20.4678 37.567L20.5456 37.6052L20.779 37.7144L20.8569 37.749L21.0162 37.8183L21.0317 37.8257L21.0726 37.8073L21.1526 37.7722L21.2328 37.7353L21.4678 37.6249L21.5445 37.5863L21.6227 37.5477L21.6995 37.5091L21.7762 37.4687L21.8511 37.43L21.9277 37.3897L22.0028 37.3494L22.0779 37.3072L22.1527 37.2668L22.2277 37.2249L22.3743 37.1404L22.4474 37.0965L22.5208 37.0543L22.6638 36.9665L22.7354 36.9208L22.807 36.8769L22.8785 36.8312L23.0182 36.7398L23.0882 36.6922L23.1562 36.6466L23.4288 36.4566L23.4952 36.409L23.6281 36.3105L23.693 36.2613L23.7594 36.212L23.824 36.161L23.8887 36.1116L23.9519 36.0605L24.0146 36.0112L24.0796 35.9584L24.1408 35.9074L24.2038 35.8562L24.2651 35.8051L24.3877 35.6994L24.4471 35.6465L24.5085 35.5936L24.5679 35.5408L24.7433 35.3802L24.859 35.2711L25.0833 35.0521L25.1378 34.9958L25.1921 34.9409L25.3009 34.8281L25.5113 34.6021L25.6133 34.4889L25.664 34.4306L25.715 34.3741L25.8134 34.2575L25.8626 34.2008L26.0997 33.9092L26.1454 33.849L26.2369 33.7323L26.2808 33.672L26.3248 33.6136L26.3687 33.5534L26.4126 33.4951L26.455 33.4349L26.4988 33.3764L26.5393 33.3161L26.5815 33.256L26.622 33.1957L26.6642 33.1374L26.7029 33.077L26.7838 32.9566L26.8614 32.8361L26.8982 32.7758L26.937 32.7154L27.048 32.5346L27.1184 32.4139L27.1258 32.4018L27.0925 32.4012L26.9538 32.402ZM27.2669 11.5851L27.3018 11.6467L27.4014 11.8266L27.4329 11.8865L27.4661 11.9463L27.4976 12.0062L27.5273 12.0679L27.5588 12.1278L27.6777 12.3671L27.7073 12.4286L27.7911 12.6082L27.8173 12.6679L27.8452 12.7277L27.8714 12.7876L27.8976 12.8491L27.9222 12.9089L27.9483 12.9686L28.0461 13.2076L28.0688 13.2673L28.0915 13.3253L28.1596 13.5046L28.1806 13.5643L28.2034 13.622L28.2243 13.6817L28.2436 13.7415L28.2645 13.7995L28.2837 13.8591L28.3047 13.917L28.3239 13.9766L28.3414 14.0345L28.3607 14.0923L28.3781 14.1521L28.3974 14.2099L28.4322 14.3257L28.4481 14.3835L28.4656 14.4414L28.5285 14.6728L28.5443 14.7288L28.5582 14.7866L28.574 14.8427L28.6021 14.9583L28.6161 15.0143L28.6284 15.0705L28.6424 15.1265L28.6546 15.1825L28.667 15.2402L28.6915 15.3524L28.7039 15.4067L28.7143 15.4627L28.7267 15.5186L28.7372 15.5747L28.7583 15.6832L28.769 15.7392L28.7778 15.7934L28.7883 15.8476L28.7971 15.9035L28.8059 15.9578L28.8165 16.0121L28.8253 16.0664L28.8325 16.1187L28.8501 16.2273L28.8574 16.2796L28.8662 16.3339L28.8803 16.4387L28.8874 16.4928L28.8928 16.5454L28.9071 16.6501L28.9125 16.7027L28.9196 16.7533L28.9304 16.8581L28.9413 16.9593L28.9467 17.0119L28.9521 17.0626L28.9558 17.1131L28.9613 17.1638L28.9649 17.2145L28.9704 17.265L28.9741 17.3157L28.9778 17.3646L28.9816 17.4152L28.9841 17.4467L29.015 17.4681L29.0562 17.4952L29.221 17.6099L29.2641 17.6404L29.3051 17.6691L29.3464 17.6996L29.3892 17.7301L29.4304 17.7586L29.4733 17.7908L29.5144 17.8214L29.5574 17.8518L29.5986 17.8823L29.6397 17.9144L29.7682 18.0111L29.8093 18.0432L29.895 18.1078L29.936 18.1418L30.0215 18.2095L30.0628 18.2435L30.1484 18.3113L30.1911 18.347L30.2339 18.381L30.3194 18.4525L30.3603 18.4897L30.4458 18.5613L30.6593 18.7485L30.7018 18.7876L30.7428 18.825L30.8281 18.9034L30.8707 18.9443L30.9133 18.9836L30.9559 19.0245L30.9986 19.0637L31.0394 19.1045L31.1245 19.1865L31.1671 19.2291L31.2078 19.2717L31.2504 19.3126L31.293 19.3554L31.502 19.5738L31.6682 19.7549L31.7902 19.8932L31.8327 19.9411L31.8733 19.9873L31.9546 20.083L31.9951 20.1325L32.0356 20.1805L32.0762 20.2301L32.115 20.2797L32.1961 20.3788L32.2349 20.4284L32.2754 20.4799L32.3142 20.531L32.3548 20.5824L32.3935 20.6338L32.4322 20.6867L32.4709 20.7381L32.5096 20.7913L32.5482 20.846L32.6256 20.952L32.6644 21.0069L32.7012 21.0615L32.7398 21.1165L32.7766 21.1711L32.8135 21.2277L32.8521 21.2842L32.889 21.339L32.9258 21.3955L32.9625 21.4537L32.9978 21.5101L33.0713 21.6267L33.1063 21.6848L33.1413 21.7449L33.178 21.8032L33.2481 21.923L33.2721 21.8782L33.3074 21.8179L33.3427 21.7558L33.3761 21.6955L33.4114 21.6333L33.4449 21.5712L33.4785 21.5073L33.5121 21.4453L33.6127 21.2537L33.6445 21.1897L33.6765 21.1242L33.7083 21.0602L33.772 20.929L33.8021 20.8634L33.8324 20.7959L33.8642 20.7302L33.8943 20.6629L33.9227 20.5954L33.953 20.528L33.9814 20.459L34.0116 20.3914L34.0402 20.3223L34.0667 20.2531L34.1239 20.1147L34.1504 20.0455L34.2041 19.9035L34.229 19.8326L34.2559 19.7617L34.281 19.6907L34.306 19.618L34.331 19.5468L34.3544 19.4742L34.3794 19.4015L34.4261 19.2558L34.4476 19.1813L34.471 19.1086L34.5359 18.8848L34.5557 18.8086L34.5774 18.7341L34.5973 18.6594L34.6171 18.5831L34.6899 18.2778L34.7081 18.1996L34.7246 18.1232L34.7574 17.9669L34.7722 17.8888L34.7887 17.8106L34.8035 17.7324L34.8164 17.6526L34.8311 17.5744L34.8703 17.3345L34.9041 17.0945L34.9153 17.0129L34.9248 16.9329L34.9344 16.8512L34.9438 16.7711L34.9675 16.5258L34.9735 16.444L34.9814 16.3604L34.9874 16.2786L34.9917 16.1968L34.9978 16.1132L35.0065 15.9478L35.0169 15.6132L35.0186 15.4458L35.0168 15.2766L35.0179 15.1912L35.0151 15.1075L35.0144 15.0221L35.0118 14.9383L35.0072 14.8528L35.0048 14.7674L35.0004 14.6818L34.9943 14.598L34.9899 14.5124L34.9776 14.3415L34.9698 14.2559L34.9636 14.1703L34.9541 14.0848L34.9464 13.9991L34.881 13.9525L34.8125 13.9023L34.7421 13.854L34.6699 13.8038L34.5994 13.7553L34.529 13.7087L34.4568 13.6618L34.3864 13.6152L34.314 13.5683L34.025 13.3884L33.8803 13.3019L33.8079 13.2604L33.7337 13.2188L33.6614 13.1774L33.5872 13.1358L33.513 13.096L33.4405 13.0562L33.3663 13.0164L33.2179 12.9404L33.1453 12.9023L33.0693 12.8661L32.9206 12.7933L32.6231 12.655L32.5469 12.6222L32.3981 12.5565L32.322 12.5254L32.173 12.4633L32.0968 12.4338L32.0222 12.4046L31.946 12.3751L31.8714 12.3458L31.7951 12.3182L31.7204 12.2907L31.6441 12.263L31.5695 12.2371L31.4931 12.2112L31.4185 12.1853L31.3421 12.1612L31.2674 12.1371L31.1909 12.1129L31.1162 12.0889L31.0399 12.0664L30.965 12.0439L30.8885 12.0216L30.8138 12.001L30.7371 11.9803L30.5876 11.939L30.511 11.9201L30.3612 11.8823L30.2115 11.848L30.1348 11.8308L30.0598 11.8137L29.7599 11.7521L29.6867 11.7385L29.5368 11.7112L29.4616 11.6992L29.3884 11.6873L29.3133 11.6755L29.2399 11.6635L29.1649 11.6534L28.9447 11.623L28.8695 11.6145L28.7226 11.5976L28.651 11.5892L28.4306 11.5692L28.3588 11.5627L28.2853 11.5578L28.2136 11.5512L28.1419 11.5463L28.0682 11.5431L27.9964 11.5382L27.7826 11.5288L27.7109 11.5275L27.639 11.5243L27.4969 11.5216L27.4269 11.5219L27.3567 11.5206L27.2864 11.521L27.2302 11.5216L27.2319 11.525L27.2669 11.5851ZM15.2229 11.5979L15.293 11.5991L15.3632 11.5989L15.5017 11.6016L15.5701 11.6045L15.6383 11.6059L15.9117 11.6182L15.9783 11.623L16.0465 11.6279L16.3125 11.6469L16.5121 11.6665L16.5766 11.6729L16.6415 11.6812L16.7079 11.6878L16.9019 11.7124L16.9648 11.7206L17.0293 11.7306L17.094 11.7389L17.3454 11.7786L17.4082 11.7903L17.471 11.8003L17.5932 11.8235L17.6561 11.8352L17.8391 11.8701L17.8983 11.8835L17.9593 11.8969L18.0186 11.9085L18.0796 11.9219L18.1387 11.9371L18.2573 11.9637L18.3163 11.9787L18.374 11.9921L18.433 12.0071L18.6628 12.0675L18.7201 12.0842L18.7758 12.0994L18.8332 12.1143L19.1669 12.215L19.2747 12.2486L19.3301 12.267L19.3841 12.2838L19.4362 12.3021L19.49 12.3206L19.5439 12.3375L19.5959 12.3559L19.6498 12.3743L19.7538 12.4113L19.8059 12.4315L19.8578 12.4499L19.9083 12.4683L19.9603 12.4885L20.0105 12.5068L20.0607 12.5269L20.111 12.5455L20.2115 12.5856L20.2618 12.6041L20.3102 12.6242L20.3606 12.6444L20.5546 12.7248L20.6031 12.7468L20.6498 12.7669L20.6983 12.7869L20.7451 12.807L20.7917 12.829L20.8384 12.8489L20.8851 12.8708L20.9318 12.891L20.9786 12.9126L21.0236 12.9327L21.0702 12.9546L21.1152 12.9747L21.1533 12.9929L21.1781 12.9811L21.2228 12.9593L21.3616 12.894L21.4079 12.874L21.4542 12.8523L21.5022 12.8305L21.5486 12.8087L21.5966 12.7871L21.6445 12.7671L21.7407 12.7235L21.7887 12.7037L21.8366 12.6819L21.8865 12.6618L21.9346 12.6402L22.0339 12.6003L22.0837 12.5785L22.1832 12.5385L22.2348 12.5188L22.2845 12.4988L22.5421 12.3992L22.5953 12.3811L22.6468 12.3612L22.7 12.3413L22.8064 12.3051L22.8596 12.2852L22.9128 12.267L23.0227 12.2308L23.0761 12.2126L23.2409 12.1582L23.2975 12.1419L23.3524 12.1237L23.4091 12.1074L23.4659 12.0894L23.6924 12.0241L23.7509 12.0078L23.8075 11.9915L23.8659 11.977L23.9243 11.9607L23.9826 11.946L24.0427 11.9316L24.1012 11.9153L24.1594 11.9006L24.2196 11.8862L24.2796 11.8734L24.3998 11.8443L24.4598 11.8315L24.5216 11.8187L24.5816 11.8059L24.8289 11.755L24.8906 11.744L24.9541 11.7331L25.0159 11.7203L25.0794 11.7094L25.1428 11.7001L25.27 11.6781L25.3334 11.669L25.3986 11.6597L25.462 11.6506L25.6575 11.623L25.7879 11.608L25.8548 11.6007L25.9199 11.5933L25.9869 11.5858L26.052 11.5801L26.1188 11.5727L26.1855 11.5669L26.2544 11.5614L26.3211 11.5556L26.3881 11.5518L26.4566 11.5461L26.525 11.5421L26.592 11.5384L26.6604 11.5344L26.729 11.5322L26.7992 11.5283L26.9362 11.524L27.0063 11.5219L27.0749 11.5216L27.1452 11.5194L27.2153 11.5191L27.2293 11.5193L27.196 11.4628L27.126 11.3431L27.0893 11.2829L27.0526 11.2247L27.0158 11.1648L26.9774 11.1047L26.9407 11.0447L26.8637 10.9247L26.8234 10.8663L26.785 10.8063L26.7446 10.7463L26.7044 10.6878L26.6625 10.6278L26.6222 10.5695L26.5802 10.5093L26.5382 10.4511L26.4943 10.3927L26.4522 10.3343L26.4068 10.2741L26.3191 10.1574L26.2736 10.099L26.2281 10.0424L26.137 9.92548L26.0896 9.86711L25.995 9.75375L25.9477 9.69512L25.8003 9.52492L25.7494 9.46813L25.7003 9.4114L25.6494 9.35461L25.4933 9.18601L25.3353 9.02066L25.172 8.85532L25.1158 8.80202L25.0597 8.74693L24.891 8.5867L24.7169 8.42647L24.4179 8.16777L24.3565 8.116L24.2949 8.06602L24.2334 8.01425L24.0433 7.86415L23.9798 7.81574L23.9165 7.76571L23.656 7.57249L23.5889 7.52567L23.522 7.47748L23.4551 7.43082L23.3863 7.38411L23.3194 7.33745L23.113 7.20268L22.9014 7.06782L22.7603 6.98134L22.6878 6.9381L22.6155 6.89672L22.5432 6.85338L22.4691 6.81194L22.3967 6.77039L22.3225 6.73058L22.2483 6.68897L22.0999 6.6095L22.024 6.56954L21.7959 6.45537L21.7182 6.4173L21.6422 6.38091L21.4865 6.30803L21.407 6.2717L21.3291 6.23704L21.2495 6.20055L21.1871 6.17329L21.1783 6.17836L21.0982 6.21329L21.018 6.25017L20.9398 6.28532L20.8615 6.322L20.7831 6.36072L20.7047 6.39749L20.5514 6.47462L20.4747 6.51502L20.398 6.55363L20.3214 6.5941L20.1716 6.67474L20.0965 6.71698L20.0214 6.75727L19.9483 6.79947L19.8731 6.84333L19.8 6.88553L19.7284 6.9295L19.6553 6.97169L19.5836 7.0155L19.5121 7.06116L19.4405 7.10513L19.3689 7.15079L19.1593 7.28795L19.0912 7.33381L19.0213 7.38115L18.8168 7.52367L18.7505 7.57112L18.551 7.719L18.4217 7.81766L18.357 7.86856L18.2922 7.91794L18.0403 8.12229L17.9789 8.17519L17.9178 8.2262L17.7952 8.33189L17.557 8.54358L17.4412 8.65273L17.3835 8.70573L17.3273 8.76041L17.2695 8.81494L17.2133 8.8714L17.1572 8.92624L17.1029 8.98097L17.0486 9.03739L16.9942 9.09212L16.9398 9.14864L16.8872 9.2052L16.8326 9.26156L16.78 9.31813L16.7292 9.37475L16.6767 9.43122L16.6258 9.48768L16.5747 9.54592L16.5255 9.60269L16.4747 9.66084L16.4255 9.71914L16.3763 9.77591L16.3288 9.8341L16.2796 9.8924L16.1848 10.0091L16.1392 10.0675L16.0918 10.1259L16.046 10.1859L16.0002 10.2444L15.9564 10.3028L15.9124 10.3629L15.8683 10.4213L15.8245 10.4815L15.7804 10.5399L15.6961 10.6604L15.6538 10.7188L15.6133 10.7791L15.5711 10.8392L15.5307 10.8997L15.4903 10.9579L15.2967 11.2595L15.1858 11.4402L15.1505 11.5005L15.1136 11.5609L15.0931 11.5989L15.1545 11.5984L15.2229 11.5979ZM34.8829 29.6758L34.8926 29.5905L34.9004 29.5053L34.9066 29.4199L34.9148 29.3329L34.9269 29.1623L34.9402 28.9081L34.9508 28.5682L34.9534 28.3156L34.9507 28.0645L34.9455 27.8969L34.9428 27.8149L34.9401 27.7311L34.9312 27.5672L34.9268 27.4834L34.9081 27.2371L34.9002 27.1568L34.8939 27.0747L34.8858 26.9945L34.8762 26.9124L34.8682 26.8319L34.8585 26.7516L34.847 26.6712L34.837 26.5907L34.8255 26.5103L34.8139 26.4317L34.8024 26.3513L34.791 26.2726L34.7509 26.0363L34.7207 25.8791L34.6904 25.7248L34.6735 25.6462L34.6567 25.5708L34.6415 25.4939L34.6228 25.4168L34.6059 25.3415L34.5873 25.2645L34.5499 25.1137L34.5294 25.0383L34.5089 24.9648L34.4903 24.8894L34.4678 24.8157L34.4475 24.7422L34.4251 24.6667L34.4046 24.5948L34.3806 24.5212L34.3583 24.4492L34.3361 24.3756L34.2638 24.1597L34.2397 24.0896L34.2138 24.0175L34.1897 23.9474L34.138 23.8069L34.1103 23.7383L34.0844 23.6681L33.9736 23.3939L33.9459 23.3272L33.9165 23.2587L33.8281 23.0582L33.7985 22.993L33.7671 22.928L33.7378 22.8612L33.7063 22.796L33.6751 22.7327L33.6436 22.6675L33.5811 22.5408L33.4817 22.3506L33.349 22.1039L33.314 22.0423L33.2792 21.9823L33.2459 21.9223L33.235 21.9378L33.1645 22.0584L33.1275 22.1187L33.0924 22.1774L32.9446 22.4116L32.8709 22.5252L32.8323 22.5819L32.7954 22.6389L32.7568 22.6938L32.7182 22.7506L32.6026 22.9158L32.5641 22.9689L32.5255 23.0242L32.4853 23.0773L32.4467 23.1307L32.4065 23.1839L32.368 23.2355L32.3278 23.2887L32.2072 23.4434L32.167 23.4932L32.1268 23.5445L32.0866 23.5943L32.0448 23.644L32.0046 23.6938L31.9645 23.7419L31.9225 23.7916L31.8807 23.8398L31.8406 23.8878L31.7569 23.9836L31.6316 24.1225L31.5916 24.1688L31.5498 24.215L31.5062 24.2613L31.3392 24.4393L31.2958 24.482L31.254 24.5267L31.2106 24.5694L31.1689 24.612L31.1253 24.6548L31.0837 24.6976L31.0404 24.7385L30.9987 24.7796L30.9553 24.8207L30.9137 24.8616L30.7421 25.024L30.6987 25.0615L30.6571 25.1008L30.5706 25.1793L30.5272 25.2168L30.4857 25.2543L30.3558 25.3668L30.3126 25.4027L30.2711 25.4402L30.1414 25.5475L30.1 25.5832L30.0568 25.6191L29.9703 25.6871L29.929 25.7212L29.8426 25.7892L29.8013 25.8233L29.7581 25.8557L29.715 25.8897L29.6717 25.9219L29.6305 25.9542L29.5873 25.9866L29.5461 26.0189L29.5029 26.0495L29.4599 26.0817L29.4185 26.1122L29.3755 26.1429L29.3341 26.1734L29.291 26.2056L29.2498 26.2344L29.2085 26.2651L29.1653 26.2956L29.0828 26.3533L29.0397 26.3839L28.9985 26.4127L28.9573 26.4397L28.9377 26.4532L28.9344 26.4985L28.9294 26.549L28.9261 26.5996L28.9007 26.8518L28.8955 26.9041L28.8886 26.9546L28.8783 27.0589L28.8715 27.111L28.8647 27.1615L28.8509 27.2659L28.844 27.3198L28.8302 27.424L28.8215 27.4779L28.8145 27.5301L28.7972 27.6379L28.7902 27.6901L28.7729 27.7978L28.7624 27.8517L28.7537 27.9073L28.7432 27.9612L28.7345 28.015L28.724 28.0706L28.7135 28.1245L28.6926 28.2356L28.6803 28.2911L28.6698 28.345L28.6453 28.456L28.6347 28.5134L28.6225 28.5688L28.6085 28.6245L28.5962 28.6818L28.5839 28.7373L28.5698 28.7945L28.5558 28.8502L28.5136 29.0218L28.4819 29.1363L28.4678 29.1935L28.4363 29.308L28.4187 29.3652L28.4028 29.4241L28.3852 29.4814L28.3675 29.5403L28.35 29.5975L28.3148 29.7154L28.2954 29.7743L28.276 29.8314L28.2585 29.8903L28.2373 29.9493L28.2178 30.0081L28.1985 30.0688L28.1351 30.2454L28.1138 30.306L28.0681 30.4235L28.0469 30.4842L28.0239 30.543L27.9992 30.6036L27.9764 30.6625L27.927 30.7836L27.9024 30.8423L27.8776 30.9028L27.8249 31.0238L27.8002 31.0844L27.772 31.1431L27.7455 31.2036L27.6045 31.506L27.5145 31.6873L27.4828 31.7495L27.4529 31.8098L27.3894 31.9306L27.356 31.9911L27.3243 32.0513L27.2239 32.2326L27.1885 32.2946L27.1533 32.3549L27.1255 32.4032L27.1625 32.4022L27.2326 32.4019L27.3047 32.3997L27.3748 32.3994L27.4451 32.3972L27.517 32.3951L27.5873 32.3913L27.6592 32.3892L27.7297 32.3854L27.8017 32.3815L27.8738 32.3759L27.9459 32.3721L28.1621 32.3554L28.2361 32.3481L28.3804 32.3335L28.4544 32.3263L28.5264 32.319L28.6745 32.3009L28.7465 32.2918L29.0428 32.2488L29.1168 32.2362L29.1909 32.2255L29.265 32.2131L29.3407 32.1988L29.4149 32.1845L29.489 32.1721L29.5649 32.1562L29.639 32.1417L29.7133 32.1257L29.7892 32.1098L29.8634 32.0938L29.9393 32.0779L30.0135 32.0601L30.1655 32.0248L30.24 32.0053L30.3919 31.9665L30.4662 31.9452L30.5423 31.9259L30.6185 31.9046L30.6929 31.8817L30.7691 31.8604L30.9214 31.8146L30.9975 31.7899L31.0718 31.7652L31.3007 31.6912L31.3751 31.6647L31.4515 31.6366L31.5277 31.6102L31.6023 31.582L31.7549 31.5258L31.8295 31.4958L31.906 31.4658L31.9823 31.4342L32.057 31.4044L32.1335 31.3727L32.208 31.341L32.2828 31.3076L32.3591 31.276L32.4341 31.2408L32.5105 31.2074L32.7348 31.1018L32.8096 31.065L32.8844 31.0299L32.9593 30.9912L33.0341 30.9543L33.109 30.9157L33.1821 30.8769L33.332 30.7963L33.4053 30.7575L33.4803 30.7155L33.7733 30.5468L33.8466 30.5029L33.9199 30.4573L33.9932 30.4132L34.0648 30.3678L34.2116 30.2763L34.4265 30.1341L34.6416 29.9866L34.7116 29.9356L34.7835 29.8848L34.8535 29.8339L34.8659 29.8236L34.8732 29.7627L34.8829 29.6758Z" fill="white"/>
<path opacity="0.5" d="M7.18752 29.6678L7.19416 29.3116L7.19777 29.2239L7.20264 29.1341L7.21348 28.8706L7.22474 28.6973L7.23163 28.6086L7.23928 28.5232L7.24466 28.4365L7.25996 28.2654L7.26862 28.178L7.31644 27.7564L7.37435 27.3409L7.40124 27.1769L7.41368 27.0968L7.42713 27.0148L7.4426 26.934L7.4563 26.852L7.4705 26.7732L7.50143 26.6116L7.5179 26.534L7.53539 26.4545L7.55161 26.3766L7.56909 26.2971L7.60153 26.1416L7.62103 26.0633L7.69398 25.7573L7.7345 25.6065L7.75273 25.5302L7.77501 25.456L7.794 25.3826L7.81425 25.3072L7.83628 25.233L7.85552 25.1596L7.87754 25.0854L7.90057 25.0145L7.92158 24.9423L7.94385 24.8681L7.98965 24.7259L8.01066 24.6537L8.03571 24.5837L8.08151 24.4418L8.10529 24.3737L8.12832 24.3028L8.15336 24.2328L8.17715 24.165L8.20194 24.095L8.22774 24.0282L8.25152 23.9602L8.27631 23.8904L8.35346 23.69L8.37799 23.6252L8.42959 23.4916L8.45741 23.426L8.48169 23.3611L8.50824 23.2975L8.53606 23.2319L8.61522 23.0409L8.64379 22.9785L8.67034 22.9146L8.69866 22.8522L8.72521 22.7886L8.75252 22.728L8.78084 22.6656L8.80815 22.6049L8.83672 22.5425L8.86403 22.4819L8.8931 22.4224L8.94771 22.3013L9.03519 22.123L9.06249 22.0626L9.09056 22.0051L9.09915 21.9916L9.0601 21.9155L8.97573 21.7383L8.9455 21.678L8.9178 21.6191L8.8906 21.558L8.86265 21.4991L8.83368 21.437L8.80699 21.3759L8.77803 21.3138L8.75108 21.2527L8.72237 21.1906L8.69669 21.1278L8.66773 21.0657L8.64205 21.0026L8.61435 20.9385L8.58892 20.8757L8.50582 20.6836L8.4814 20.6188L8.45497 20.5527L8.42727 20.4887L8.40083 20.4227L8.37641 20.3579L8.35124 20.2899L8.3248 20.2239L8.24929 20.0202L8.22588 19.9534L8.17553 19.8174L8.05549 19.4682L8.03359 19.3995L7.91961 19.0406L7.89797 18.967L7.87533 18.8951L7.85546 18.8227L7.81244 18.6751L7.79207 18.5995L7.77044 18.5259L7.75208 18.4515L7.71134 18.3001L7.67363 18.1482L7.65654 18.0718L7.63642 17.9962L7.56605 17.6845L7.53414 17.5279L7.51604 17.4483L7.50022 17.37L7.4264 16.9689L7.39929 16.8045L7.38776 16.7235L7.36065 16.5592L7.35038 16.4763L7.33784 16.3923L7.32782 16.3093L7.31528 16.2251L7.30526 16.1424L7.25947 15.7182L7.25147 15.6313L7.2455 15.5459L7.2375 15.459L7.22579 15.2878L7.21906 15.1992L7.2002 14.8491L7.19851 14.7608L7.19506 14.6714L7.19338 14.583L7.18993 14.4936L7.18976 14.4035L7.18807 14.3152L7.1879 14.2251L7.18692 14.1875L7.16168 14.2015L7.08164 14.2468L7.00236 14.295L6.92233 14.34L6.84103 14.3869L6.76201 14.4351L6.68121 14.4853L6.60219 14.5335L6.52165 14.5836L6.44237 14.6318L6.3641 14.6829L6.28204 14.7351L6.20377 14.7865L6.12398 14.8396L6.04545 14.8909L5.88588 14.9974L5.8071 15.0537L5.72933 15.108L5.49248 15.2769L5.41546 15.3344L5.33542 15.3927L5.2584 15.4502L5.18012 15.5097L5.10386 15.5704L5.02558 15.6296L4.94831 15.6923L4.87205 15.7528L4.71725 15.8779L4.64199 15.9415L4.56447 16.0042L4.48896 16.0679L4.41244 16.1335L4.33769 16.2003L4.26092 16.266L4.18768 16.3308L4.11192 16.3994L4.03691 16.4663L3.96316 16.5363L3.88841 16.6029L3.74066 16.7427L3.66742 16.8157L3.59342 16.8857L3.52169 16.9568L3.44845 17.0297L3.37722 17.104L3.30398 17.1769L3.16177 17.3254L3.09256 17.4008L3.02032 17.4767L2.94985 17.5541L2.88064 17.6296L2.81042 17.7067L2.74197 17.7853L2.67225 17.8657L2.60404 17.9441L2.53609 18.0256L2.46789 18.104L2.33249 18.2672L2.06975 18.5981L2.00482 18.6841L1.94116 18.7679L1.8113 18.9396L1.68548 19.1138L1.62458 19.202L1.56142 19.2889L1.43862 19.4673L1.20033 19.8287L1.02572 20.106L0.855634 20.3887L0.636255 20.7719L0.583933 20.868L0.5306 20.966L0.479033 21.065L0.428729 21.1623L0.325847 21.3605L0.177198 21.6614L0.0346026 21.9657L0.0161432 22.0077L0.0312544 22.0403L0.125445 22.2445L0.222161 22.445L0.272538 22.5463L0.322159 22.6448L0.372536 22.7461L0.422158 22.8445L0.633265 23.2347L0.79526 23.5215L0.852455 23.6163L0.907885 23.71L0.964828 23.805L1.02127 23.8967L1.07846 23.9914L1.13617 24.0815L1.19463 24.1742L1.37354 24.4473L1.49501 24.6255L1.557 24.7128L1.61799 24.8019L1.67999 24.889L1.744 24.9773L1.93378 25.233L2.00032 25.3176L2.06333 25.4027L2.12987 25.4871L2.19566 25.5686L2.26321 25.6513L2.39479 25.8139L2.46234 25.8966L2.52914 25.9758L2.5982 26.0566L2.66828 26.1353L2.80441 26.2903L2.87449 26.3691L2.94381 26.4446L3.0865 26.5982L3.22767 26.7456L3.30003 26.8204L3.37062 26.894L3.44423 26.9671L3.58794 27.1106L3.66155 27.1835L3.80753 27.323L3.88368 27.3922L3.9578 27.4601L4.03092 27.5298L4.10606 27.5958L4.18018 27.6637L4.40635 27.8616L4.63631 28.0539L4.71095 28.1167L4.78861 28.1787L4.86426 28.2398L4.94243 28.3019L5.01808 28.3629L5.09726 28.423L5.25108 28.5409L5.3295 28.5981L5.40843 28.6584L5.4866 28.7153L5.56629 28.7705L5.64245 28.8264L5.88102 28.9919L5.95843 29.0461L6.03913 29.0993L6.1965 29.2032L6.27645 29.2535L6.35513 29.3055L6.59472 29.456L6.99471 29.6935L7.15537 29.7837L7.1869 29.8024L7.18795 29.7579L7.18752 29.6678ZM7.32805 14.1108L7.40808 14.0658L7.48887 14.0237L7.56789 13.9804L7.81025 13.8545L7.88978 13.8144L7.97056 13.7726L8.0521 13.7337L8.13188 13.6936L8.21216 13.6567L8.29168 13.6167L8.69357 13.4317L8.77461 13.398L8.85387 13.3628L8.93465 13.3291L9.01392 13.2939L9.49354 13.1024L9.6508 13.0424L9.73158 13.0136L9.81033 12.9836L9.88985 12.9565L9.96835 12.9267L10.0479 12.8996L10.1254 12.8718L10.2049 12.8448L10.2831 12.8199L10.3626 12.7928L10.5974 12.718L10.6744 12.6951L10.7526 12.6699L10.9066 12.6239L10.9856 12.602L11.0628 12.5791L11.1385 12.5579L11.2163 12.5382L11.2933 12.515L11.3692 12.4938L11.4457 12.4759L11.7506 12.3975L11.8261 12.3815L11.9008 12.3623L11.9773 12.3443L12.1279 12.3122L12.2014 12.295L12.4997 12.2311L12.7223 12.1887L12.7932 12.1753L12.8674 12.161L13.0133 12.1364L13.0842 12.1233L13.2301 12.0986L13.302 12.0885L13.375 12.0761L13.4446 12.0648L13.5882 12.044L13.6566 12.0344L13.7283 12.0242L13.7989 12.0158L13.8686 12.0042L14.0097 11.9874L14.0783 11.978L14.1487 11.9696L14.2161 11.9619L14.2868 11.9535L14.3559 11.9471L14.4233 11.9397L14.4927 11.933L14.6275 11.9179L14.6966 11.9112L14.7627 11.9055L14.8309 11.901L14.8983 11.8936L15.0966 11.8762L15.0986 11.8774L15.1128 11.8595L15.1487 11.8067L15.2659 11.646L15.303 11.5915L15.3422 11.5379L15.3826 11.4824L15.4238 11.43L15.4627 11.3765L15.5031 11.3212L15.5443 11.2689L15.5845 11.2134L15.7962 10.9419L15.8396 10.8859L15.8821 10.8316L15.9276 10.7765L15.9718 10.7235L16.0152 10.6672L16.0609 10.6122L16.1051 10.5591L16.2416 10.394L16.2903 10.3382L16.3378 10.2844L16.3833 10.2294L16.4808 10.1178L16.5283 10.064L16.577 10.0082L16.6275 9.95367L16.6763 9.89789L16.8791 9.67945L16.9309 9.62293L16.9834 9.56961L17.0355 9.5131L17.088 9.45953L17.1958 9.34895L17.2484 9.29562L17.3024 9.24009L17.3582 9.18602L17.4133 9.12877L17.4691 9.07471L17.527 9.02162L17.5828 8.96756L17.6399 8.91129L17.6977 8.85845L17.7535 8.80439L17.8717 8.69429L17.9313 8.64268L17.9904 8.58763L18.0515 8.53381L18.1104 8.479L18.1735 8.42641L18.2955 8.31876L18.3586 8.26616L18.4195 8.21259L18.4826 8.15999L18.5488 8.10665L18.6748 8.00146L18.7409 7.94812L18.8058 7.89675L18.872 7.84342L18.9389 7.79327L19.0051 7.73994L19.0722 7.68979L19.2083 7.58557L19.2785 7.53444L19.3455 7.48429L19.556 7.3314L19.9166 7.08236L19.9906 7.03368L20.0628 6.98403L20.1388 6.93657L20.287 6.83946L20.4393 6.74456L20.5165 6.69514L20.5945 6.64891L20.6708 6.60146L20.8268 6.50876L20.9069 6.46376L20.9849 6.41753L21.0649 6.37253L21.0977 6.35482L21.0879 6.34894L21.0074 6.30384L20.926 6.2607L20.8435 6.21437L20.6803 6.1281L20.5968 6.08374L20.5141 6.04257L20.4293 5.99992L20.3466 5.95875L20.1769 5.87396L20.0051 5.7931L19.9171 5.75144L19.8298 5.71273L19.7438 5.67229L19.6568 5.63358L19.5675 5.59389L19.4792 5.55714L19.3899 5.51745L19.2996 5.47972L19.21 5.44494L19.1195 5.40697L19.0279 5.37121L18.9376 5.33348L18.8448 5.29919L18.7532 5.26343L18.4747 5.16155L18.3789 5.12825L18.286 5.09445L18.1919 5.06237L18.0948 5.03103L18.0007 4.9992L17.9036 4.96762L17.8082 4.93751L17.7099 4.90814L17.6145 4.87802L17.5161 4.84865L17.4197 4.8205L17.2204 4.76569L17.1228 4.73926L17.0232 4.71186L16.8216 4.66097L16.7227 4.63651L16.6218 4.61107L16.4177 4.56387L16.3175 4.54137L16.0077 4.47659L15.9053 4.45803L15.6961 4.41844L15.5937 4.39988L15.3823 4.36422L15.2786 4.34762L15.1716 4.33176L15.0659 4.31393L14.9599 4.30126L14.8529 4.2854L14.7467 4.27249L14.6387 4.25859L14.5325 4.24567L14.4232 4.23374L14.2085 4.21184L14.098 4.20212L13.7722 4.17516L13.5527 4.16112L13.4417 4.15631L13.3319 4.14905L13.2229 4.14522L13.1106 4.14213L12.9996 4.13707L12.8893 4.13496L12.776 4.13384L12.6658 4.13173L12.4427 4.13193L12.3281 4.13252L12.2169 4.13238L12.1041 4.1342L11.9923 4.13921L11.8795 4.14103L11.7644 4.14678L11.6526 4.15179L11.5388 4.15558L11.4255 4.16256L11.3112 4.1715L11.1981 4.17823L10.9695 4.19611L10.8559 4.208L10.7416 4.2167L10.628 4.22859L10.5574 4.237L10.5503 4.24854L10.4156 4.42789L10.3492 4.52075L10.2837 4.61165L10.2206 4.70378L10.1549 4.79468L10.0917 4.88655L10.0303 4.97991L9.96689 5.07203L9.90549 5.16538L9.8461 5.25947L9.7847 5.35282L9.72658 5.44518L9.66896 5.54098L9.61083 5.63335L9.49711 5.8225L9.44277 5.91731L9.38667 6.01091L9.33233 6.10572L9.17562 6.39385L9.12456 6.48793L9.07425 6.5852L9.0232 6.67927L8.97617 6.77556L8.92562 6.87283L8.83157 7.06564L8.78581 7.1602L8.69555 7.35522L8.60756 7.5468L8.56457 7.64554L8.48062 7.83908L8.44193 7.93536L8.36201 8.13135L8.32331 8.22738L8.17635 8.6164L8.14144 8.71488L8.10804 8.8114L8.07313 8.90988L8.03948 9.0064L7.94484 9.29963L7.91447 9.39541L7.88486 9.49413L7.79956 9.78514L7.74689 9.98135L7.67118 10.2699L7.60152 10.5621L7.57948 10.6574L7.49939 11.0439L7.48063 11.1387L7.46238 11.2364L7.4119 11.524L7.39642 11.618L7.38271 11.7133L7.36773 11.8103L7.34056 12.0003L7.32786 12.0936L7.3144 12.1887L7.27242 12.5663L7.26325 12.6586L7.24155 12.9395L7.23213 13.0321L7.227 13.1268L7.21497 13.3103L7.21085 13.4031L7.20799 13.4939L7.20387 13.587L7.19529 13.8595L7.1942 13.9518L7.19261 14.0409L7.19121 14.1858L7.246 14.1545L7.32805 14.1108ZM20.8949 37.475L20.5052 37.2433L20.2013 37.0521L20.1285 37.0036L20.0525 36.9558L19.9799 36.9075L19.905 36.8577L19.8324 36.8091L19.7608 36.7586L19.6879 36.7101L19.6165 36.6596L19.5469 36.6103L19.4753 36.5598L19.407 36.5088L19.3353 36.4583L19.062 36.2535L18.9954 36.2032L18.9283 36.1503L18.862 36.1002L18.7949 36.047L18.7317 35.9963L18.6646 35.943L18.6026 35.8903L18.5372 35.8383L18.4735 35.7846L18.4114 35.7319L18.3464 35.6799L18.2856 35.6252L18.1615 35.5197L18.1028 35.4663L18.0408 35.4135L17.98 35.3591L17.8035 35.1987L17.746 35.1433L17.6873 35.0898L17.6296 35.0344L17.5728 34.9821L17.5153 34.9267L17.293 34.7098L17.2405 34.6549L17.1848 34.6007L17.0802 34.4908L17.0265 34.4378L16.8692 34.2727L16.82 34.217L16.7676 34.1621L16.7172 34.1084L16.668 34.0527L16.6176 33.9987L16.5684 33.943L16.521 33.8886L16.4719 33.8329L16.4248 33.7784L16.3753 33.7227L16.2337 33.5591L16.1886 33.5056L16.1424 33.4492L16.0971 33.3957L16.0532 33.3405L16.0058 33.2861L15.962 33.2306L15.9199 33.1766L15.8745 33.1232L15.8304 33.068L15.7464 32.9598L15.7023 32.9043L15.5761 32.7421L15.5373 32.6872L15.4952 32.633L15.4551 32.5802L15.4163 32.5253L15.3361 32.4195L15.2971 32.3646L15.257 32.3116L15.2182 32.2568L15.1801 32.2051L15.1413 32.1501L15.1043 32.0964L15.0949 32.0856L15.0876 32.0839L15.0205 32.0783L14.9552 32.0739L14.7535 32.0574L14.6844 32.0509L14.6186 32.0433L14.5492 32.0365L14.4821 32.0311L14.4129 32.0243L14.3448 32.0158L14.2065 32.0024L14.1384 31.9936L14.0672 31.9859L13.9994 31.9773L13.9282 31.9693L13.7882 31.9498L13.717 31.9417L13.5773 31.9222L13.4334 31.9003L13.3633 31.8905L13.2195 31.8685L13.1456 31.8563L13.0749 31.8434L13.001 31.8314L12.9304 31.8185L12.7825 31.794L12.6369 31.7659L12.5623 31.7505L12.4896 31.7366L12.1162 31.6604L12.0428 31.643L11.9661 31.6266L11.8152 31.5899L11.7385 31.5735L11.5877 31.5369L11.5102 31.5173L11.436 31.497L11.2811 31.4578L11.1288 31.415L11.0513 31.3954L10.8949 31.3502L10.8187 31.3286L10.7418 31.3041L10.6636 31.2816L10.5846 31.2557L10.5064 31.2331L10.4295 31.2087L10.1923 31.1313L10.1149 31.1036L10.0359 31.0779L9.95823 31.0502L9.71884 30.9638L9.64114 30.9361L9.56143 30.9072L9.48096 30.8754L9.40251 30.8445L9.32179 30.8124L9.24233 30.7838L9.16287 30.7497L9.08241 30.7179L9.0032 30.6841L8.92248 30.652L8.84151 30.6169L8.76231 30.5831L8.68083 30.5481L8.60264 30.5123L8.52167 30.4773L8.28154 30.3663L8.20083 30.3263L8.12062 30.2893L7.95919 30.2092L7.88025 30.1702L7.79727 30.1291L7.71782 30.0869L7.6371 30.047L7.5574 30.0048L7.47568 29.9617L7.3975 29.9178L7.31578 29.8747L7.23558 29.8296L7.1869 29.8031L7.18786 29.849L7.18829 29.9391L7.19073 30.0304L7.1909 30.1205L7.19772 30.3948L7.21059 30.6724L7.21606 30.763L7.22253 30.8568L7.22674 30.9494L7.23423 31.0412L7.24247 31.1359L7.24995 31.2278L7.25819 31.3228L7.27695 31.5086L7.28721 31.6046L7.32153 31.8871L7.33507 31.9824L7.34633 32.0766L7.3629 32.1712L7.38973 32.3619L7.4063 32.4564L7.42186 32.5529L7.44044 32.6486L7.45575 32.7451L7.49292 32.9365L7.51353 33.0335L7.53211 33.1292L7.55272 33.2262L7.57433 33.3212L7.59493 33.4181L7.61882 33.5144L7.64144 33.6123L7.68871 33.8047L7.76591 34.0968L7.79484 34.1933L7.82049 34.2907L7.84943 34.3872L7.87709 34.4859L7.90804 34.5836L7.93697 34.6803L7.96919 34.776L8.00014 34.8739L8.03411 34.9709L8.06506 35.0685L8.13302 35.2627L8.16927 35.3609L8.2035 35.4578L8.24076 35.5543L8.27675 35.6524L8.35531 35.8473L8.39256 35.9435L8.43386 36.0422L8.47415 36.1376L8.51342 36.2351L8.55598 36.3318L8.60031 36.4297L8.64413 36.5244L8.68643 36.6211L8.73101 36.719L8.82218 36.9109L8.87004 37.0081L8.91865 37.1033L8.96651 37.2003L9.06399 37.3907L9.11488 37.4871L9.16678 37.5816L9.21766 37.6778L9.26956 37.7723L9.32372 37.868L9.3789 37.9617L9.43282 38.0572L9.48824 38.1509L9.54519 38.2459L9.60062 38.3396L9.71728 38.5253L9.7765 38.6215L9.83622 38.7126L9.89669 38.8065L10.0814 39.0831L10.1449 39.1766L10.3392 39.4509L10.4053 39.5404L10.5413 39.7217L10.5542 39.7401L10.613 39.746L10.7275 39.7584L10.8434 39.7688L11.1845 39.797L11.2975 39.8033L11.4123 39.8105L11.5254 39.8168L11.6397 39.8211L11.7507 39.8262L11.8648 39.8305L11.9771 39.8339L12.0906 39.835L12.2027 39.8381L12.316 39.8394L12.539 39.8395L12.6516 39.8374L12.7631 39.8376L12.9844 39.8315L13.0962 39.8265L13.207 39.8234L13.3188 39.8184L13.5386 39.8062L13.6499 39.798L13.7576 39.7907L14.1942 39.7535L14.3015 39.7431L14.5182 39.7184L14.6247 39.705L14.733 39.6926L14.8405 39.6771L14.947 39.6635L15.0528 39.6469L15.157 39.6321L15.266 39.6148L15.3695 39.597L15.4752 39.5803L15.579 39.5625L15.7887 39.523L15.8914 39.5021L15.9964 39.4823L16.0991 39.4614L16.4053 39.3943L16.6095 39.3465L17.01 39.2455L17.1095 39.2174L17.2077 39.1908L17.4063 39.1344L17.7958 39.0164L17.9868 38.9551L18.0833 38.9224L18.1787 38.8918L18.368 38.8244L18.4616 38.7924L18.9248 38.6179L19.0167 38.5798L19.1982 38.5077L19.2881 38.4683L19.377 38.4312L19.4668 38.3918L19.5554 38.3546L19.6435 38.3143L19.7321 38.2769L19.8182 38.2353L19.9061 38.195L19.9922 38.1534L20.0787 38.115L20.1628 38.0722L20.3347 37.9891L20.5029 37.9038L20.5847 37.8597L20.6687 37.817L20.9149 37.6854L21.075 37.5951L21.0914 37.5863L21.0538 37.564L20.8949 37.475ZM34.9983 14.2394L34.9975 14.3315L34.9924 14.5986L34.9888 14.6865L34.9872 14.7754L34.9836 14.8633L34.9767 14.9519L34.9731 15.0398L34.9508 15.3865L34.9439 15.4749L34.921 15.7315L34.9116 15.8157L34.9039 15.9011L34.8943 15.9856L34.8836 16.0718L34.8722 16.155L34.8625 16.2392L34.8163 16.5717L34.8028 16.6537L34.7904 16.7338L34.7498 16.9798L34.7343 17.0606L34.7221 17.1404L34.7067 17.2212L34.6892 17.301L34.6747 17.3798L34.6573 17.4594L34.6431 17.5382L34.6256 17.6177L34.6073 17.6944L34.5911 17.772L34.5716 17.8505L34.5554 17.9281L34.5187 18.0811L34.4987 18.1565L34.4804 18.2331L34.3994 18.5345L34.3804 18.6076L34.3581 18.6818L34.3391 18.7552L34.2948 18.9036L34.2738 18.9758L34.2508 19.047L34.2298 19.1192L34.2068 19.1901L34.1827 19.2631L34.1367 19.4053L34.1149 19.4745L34.0899 19.5443L34.0671 19.6153L34.042 19.6853L33.9945 19.8211L33.9697 19.8911L33.9439 19.9579L33.9201 20.0256L33.8933 20.0944L33.8675 20.1612L33.8437 20.2292L33.8179 20.296L33.7916 20.3597L33.74 20.4933L33.7137 20.5569L33.6879 20.6237L33.6348 20.7509L33.6073 20.8165L33.5787 20.8791L33.5258 21.0063L33.4973 21.069L33.472 21.1306L33.4151 21.2556L33.3607 21.3767L33.3321 21.4393L33.3048 21.5L33.2758 21.5592L33.2485 21.6199L33.2191 21.6793L33.1921 21.7397L33.1627 21.7992L33.1347 21.8567L33.1056 21.9161L33.0877 21.9532L33.1088 21.9974L33.138 22.0545L33.2504 22.2906L33.2793 22.3529L33.3073 22.4118L33.3342 22.473L33.3629 22.535L33.3911 22.5939L33.4188 22.658L33.4455 22.7191L33.4745 22.7812L33.5015 22.8423L33.5271 22.9051L33.61 23.0973L33.6357 23.1601L33.6908 23.2885L33.7152 23.3533L33.7681 23.4851L33.7928 23.5501L33.8456 23.6819L33.8708 23.7499L33.8972 23.8159L33.9476 23.9519L33.9697 24.0203L34.0201 24.1563L34.1401 24.5056L34.1628 24.5772L34.1849 24.646L34.2305 24.7895L34.2521 24.8632L34.2747 24.9351L34.2964 25.0087L34.3193 25.0806L34.3389 25.153L34.3819 25.3006L34.4023 25.3762L34.4206 25.4505L34.4423 25.5242L34.4626 25.6L34.5569 25.9815L34.627 26.2932L34.675 26.5281L34.6919 26.6096L34.7077 26.6879L34.7373 26.8484L34.7509 26.9304L34.7654 27.0107L34.779 27.0929L34.7905 27.1739L34.8176 27.3382L34.8292 27.4192L34.8414 27.5034L34.852 27.5861L34.8643 27.6703L34.8745 27.7533L34.8838 27.838L34.8941 27.9209L34.9031 28.0059L34.9111 28.0925L34.9293 28.2622L34.9373 28.3491L34.9433 28.4345L34.951 28.5214L34.957 28.6068L34.9617 28.6945L34.9685 28.7831L34.9745 28.8688L34.9792 28.9562L34.9826 29.0456L34.9856 29.132L34.9925 29.311L34.9942 29.3991L34.9943 29.4894L34.9978 29.5788L34.9986 29.7592L35.0557 29.7243L35.1357 29.6793L35.217 29.6324L35.295 29.5861L35.3763 29.5389L35.4556 29.4907L35.5361 29.4406L35.6154 29.3926L35.8568 29.2422L35.9353 29.1908L36.0151 29.1377L36.0936 29.0863L36.253 28.9798L36.3307 28.9255L36.4098 28.8692L36.4895 28.8159L36.5683 28.7596L36.6453 28.7021L36.7244 28.6458L36.8024 28.5865L36.8814 28.53L36.9597 28.4707L37.0357 28.41L37.1923 28.2913L37.2683 28.2306L37.4233 28.1055L37.4986 28.0418L37.5761 27.9794L37.6516 27.9157L37.7282 27.8501L37.8037 27.7862L37.8784 27.7196L37.9549 27.654L38.1044 27.5203L38.1782 27.4503L38.2529 27.3837L38.4747 27.1738L38.5477 27.1008L38.6217 27.031L38.6937 26.9598L38.7667 26.8868L39.0513 26.5902L39.1238 26.514L39.193 26.4386L39.3337 26.284L39.4022 26.2056L39.4726 26.1282L39.5411 26.0499L39.6085 25.9683L39.677 25.8899L39.8801 25.6452L40.0771 25.3968L40.1438 25.3123L40.2075 25.2283L40.2724 25.1425L40.3361 25.0585L40.5251 24.7976L40.586 24.7094L40.6502 24.6205L40.711 24.5323L40.7699 24.4428L40.8321 24.3527L40.9513 24.1721L41.1841 23.8022L41.2966 23.6147L41.4062 23.4231L41.4639 23.3276L41.5159 23.2315L41.5715 23.135L41.6239 23.039L41.6752 22.9397L41.7288 22.842L41.7803 22.7427L41.8286 22.6445L41.8802 22.5453L41.979 22.3448L42.0266 22.2434L42.0761 22.1429L42.1216 22.0405L42.1694 21.9391L42.1256 21.8441L42.0805 21.7432L42.0321 21.6431L41.9828 21.5398L41.9344 21.4394L41.8848 21.3413L41.8334 21.2416L41.7838 21.1435L41.7321 21.0438L41.521 20.6537L41.413 20.4625L41.3578 20.3688L41.3006 20.2738L41.2454 20.1803L41.1882 20.0853L41.1298 19.9924L41.0733 19.9006L41.0149 19.8076L40.8957 19.6258L40.838 19.5357L40.7752 19.4457L40.6535 19.2673L40.4053 18.9186L40.34 18.8323L40.2135 18.6618L40.1472 18.5774L40.0181 18.4108L39.9506 18.3281L39.8848 18.2469L39.8172 18.1642L39.7514 18.0828L39.6826 18.0023L39.6156 17.9228L39.5468 17.8421L39.4787 17.7646L39.4086 17.6858L39.3406 17.6083L39.2692 17.5315L39.1999 17.456L39.1285 17.3792L39.0592 17.3037L38.9869 17.2288L38.9163 17.155L38.8437 17.0802L38.7721 17.0086L38.6982 16.9355L38.5547 16.792L38.4799 16.7211L38.3339 16.5813L38.1856 16.4456L38.1095 16.3765L38.0351 16.3085L37.7336 16.0446L37.6589 15.9819L37.5059 15.8538L37.4279 15.7915L37.3523 15.7307L37.2744 15.6687L37.1985 15.6076L37.1196 15.5475L36.8883 15.3705L36.8081 15.3121L36.6515 15.1979L36.5754 15.142L36.3371 14.9764L36.2594 14.9225L36.1787 14.8693L36.1013 14.8154L36.0226 14.7634L35.9406 14.7119L35.8619 14.6599L35.6241 14.5106L35.5432 14.4626L35.4632 14.4123L35.3028 14.3172L35.2226 14.2721L35.1434 14.225L35.063 14.1799L34.9984 14.1441L34.9981 14.1491L34.9983 14.2394ZM21.2432 6.44111L21.3224 6.48793L21.4026 6.53328L21.559 6.62619L21.6352 6.67375L21.7121 6.71959L22.016 6.91081L22.0889 6.95936L22.1635 7.00913L22.4545 7.20307L22.6694 7.3546L22.7387 7.40364L22.8073 7.45514L22.8787 7.50565L23.084 7.65915L23.1503 7.70918L23.2174 7.76239L23.2857 7.81364L23.5464 8.02135L23.6105 8.07531L23.6755 8.1273L23.7996 8.23276L23.8636 8.28671L24.0495 8.44465L24.1082 8.49812L24.169 8.55282L24.229 8.60432L24.2898 8.65901L24.3472 8.71445L24.465 8.82139L24.5225 8.87657L24.5795 8.92906L24.6369 8.98425L24.8593 9.20133L24.9138 9.25726L24.9672 9.31048L25.0229 9.36445L25.3373 9.69438L25.4381 9.80207L25.4893 9.85873L25.5397 9.9127L25.5871 9.96716L25.6363 10.0228L25.6867 10.0768L25.7338 10.1313L25.7832 10.187L25.8775 10.2961L25.9236 10.3526L25.9708 10.407L26.0162 10.4605L26.0623 10.5169L26.1074 10.5702L26.1515 10.6254L26.1966 10.6788L26.2848 10.7892L26.33 10.8427L26.3721 10.8967L26.4162 10.9521L26.5845 11.1685L26.6254 11.2247L26.6654 11.2777L26.7075 11.3317L26.7476 11.3847L26.7864 11.4396L26.8265 11.4924L26.8653 11.5474L26.9054 11.6003L26.9444 11.6551L26.9825 11.7068L27.0213 11.7618L27.0594 11.8136L27.0909 11.8587L27.1269 11.8616L27.1923 11.866L27.3939 11.8825L27.46 11.89L27.5271 11.8956L27.5963 11.9022L27.6636 11.9078L27.7328 11.9146L27.8006 11.9231L27.9392 11.9365L28.007 11.9453L28.0762 11.9518L28.1463 11.9616L28.2154 11.9684L28.3552 11.9879L28.4264 11.9957L28.5664 12.0152L28.6383 12.0265L28.7082 12.0362L29.068 12.0911L29.1407 12.1053L29.2126 12.1163L29.2865 12.1285L29.4318 12.1566L29.5057 12.1688L29.5784 12.1827L29.7277 12.2133L29.8007 12.2275L30.0247 12.2732L30.1001 12.2915L30.1748 12.3067L30.2502 12.325L30.3269 12.3416L30.6287 12.415L30.7061 12.4346L30.7816 12.4529L30.8577 12.4745L30.9352 12.494L31.0114 12.5153L31.0896 12.5381L31.167 12.5577L31.2432 12.579L31.3214 12.6017L31.3984 12.6262L31.5548 12.6715L31.6317 12.696L31.7107 12.7217L31.7876 12.7462L32.1035 12.8492L32.1812 12.8769L32.2609 12.9058L32.3398 12.9315L32.4195 12.9604L32.498 12.991L32.6577 13.0488L32.7361 13.0797L32.8166 13.1115L32.895 13.1424L33.1364 13.2382L33.2951 13.3058L33.3763 13.3411L33.4555 13.3749L33.537 13.4099L33.6149 13.4457L33.6962 13.4807L33.7761 13.5175L33.8584 13.5559L33.9383 13.5927L34.0173 13.6319L34.0992 13.6699L34.1799 13.7098L34.2589 13.749L34.3396 13.789L34.4193 13.8309L34.502 13.8721L34.6612 13.9561L34.7427 13.9993L34.8211 14.0434L34.9028 14.0865L34.983 14.1316L34.9989 14.141L34.9982 14.0558L34.9974 13.8756L34.9952 13.784L34.9917 13.6946L34.9893 13.6033L34.9851 13.5107L34.9829 13.4194L34.9742 13.2343L34.9668 13.1425L34.9625 13.0499L34.9561 12.9561L34.9488 12.8643L34.9406 12.7696L34.9331 12.6778L34.9249 12.5827L34.9154 12.4899L34.9038 12.3957L34.8943 12.3026L34.8823 12.2054L34.8593 12.0171L34.846 11.9219L34.8314 11.8286L34.8046 11.6379L34.789 11.5414L34.7559 11.3524L34.7406 11.2557L34.6848 10.9685L34.6642 10.8715L34.6456 10.7758L34.625 10.6788L34.5582 10.3877L34.487 10.099L34.4098 9.80695L34.3809 9.71049L34.3532 9.61207L34.2664 9.32219L34.1736 9.02889L34.0032 8.54367L33.9672 8.44549L33.9299 8.34929L33.8939 8.25111L33.7761 7.95881L33.7356 7.8631L33.6963 7.76567L33.5266 7.37914L33.481 7.28294L33.4364 7.18527L33.3908 7.08931L33.3432 6.99213L33.2976 6.89618L33.151 6.61053L32.9986 6.32146L32.8946 6.13251L32.8404 6.0368L32.7852 5.94332L32.7313 5.84761L32.6741 5.7529L32.6189 5.65916L32.5605 5.56617L32.5033 5.4712L32.3864 5.28546L32.3262 5.19123L32.1412 4.91471L32.0777 4.82147L32.0149 4.73118L31.8854 4.54814L31.8186 4.45565L31.7526 4.36609L31.6858 4.27335L31.6326 4.2022L31.6192 4.20221L31.5047 4.18955L31.3889 4.1791L31.2763 4.1679L31.1628 4.15843L31.0477 4.15117L30.9339 4.1417L30.7081 4.12914L30.5938 4.12482L30.4808 4.11854L30.3667 4.11447L30.1424 4.10804L30.0288 4.10692L29.9165 4.10358L29.8052 4.10368L29.6904 4.10428L29.5792 4.10438L29.4684 4.10743L29.3571 4.10753L29.2463 4.11033L29.1345 4.11534L29.0237 4.11839L28.9119 4.1234L28.5821 4.14186L28.4741 4.14933L28.3631 4.15729L28.0355 4.18508L27.9285 4.19549L27.6032 4.23261L27.3905 4.25981L27.283 4.27513L27.1765 4.28873L26.754 4.3554L26.649 4.37513L26.5455 4.3929L26.3358 4.43238L25.9241 4.51622L25.7199 4.56404L25.619 4.58623L25.5188 4.61136L25.4168 4.63527L25.3154 4.66236L25.2152 4.68774L25.117 4.7141L25.0178 4.74243L24.9196 4.76878L24.8201 4.79711L24.7227 4.82666L24.6233 4.85474L24.5258 4.88429L24.4304 4.91506L24.3332 4.94461L24.2378 4.97514L24.1412 5.00764L24.0475 5.03964L23.9511 5.07213L23.8564 5.10585L23.7628 5.13786L23.6701 5.17256L23.5755 5.20628L23.3902 5.27617L23.2996 5.31234L23.2069 5.34729L23.1151 5.38518L23.0242 5.42136L22.9356 5.45875L22.8457 5.49787L22.7568 5.53502L22.667 5.57439L22.5781 5.61154L22.4024 5.69247L22.3156 5.73085L22.2295 5.77242L22.1416 5.81277L22.0556 5.85458L21.971 5.89394L21.5509 6.10792L21.305 6.23949L21.225 6.28449L21.1429 6.32851L21.0944 6.35802L21.1648 6.39723L21.2432 6.44111ZM31.7452 39.5488L31.8126 39.4592L31.8778 39.3683L31.9412 39.2761L32.0079 39.1835L32.1345 38.9993L32.3175 38.7217L32.554 38.3458L32.7238 38.0631L32.8866 37.7786L32.9912 37.5865L33.0423 37.4925L33.0946 37.3964L33.1927 37.2061L33.243 37.1088L33.3843 36.8195L33.4283 36.7239L33.4753 36.6274L33.5191 36.5318L33.5623 36.4331L33.6063 36.3373L33.6483 36.2405L33.6882 36.1425L33.73 36.0455L33.7699 35.9475L33.8086 35.8515L33.8486 35.7535L33.8875 35.6575L33.9978 35.3655L34.0671 35.1687L34.1344 34.9755L34.1671 34.876L34.1977 34.7802L34.2311 34.6837L34.2607 34.5847L34.2911 34.489L34.3207 34.3902L34.3776 34.1962L34.404 34.098L34.429 34.002L34.4576 33.905L34.4807 33.8075L34.506 33.7115L34.5303 33.612L34.5544 33.5177L34.5757 33.4193L34.5977 33.3237L34.621 33.2265L34.6811 32.9365L34.6998 32.8419L34.7178 32.744L34.7366 32.6494L34.7703 32.4576L34.784 32.3624L34.8008 32.2666L34.8554 31.886L34.8678 31.793L34.8795 31.6967L34.9111 31.4136L34.9202 31.321L34.9274 31.2275L34.9381 31.1332L34.9452 31.0394L34.9514 30.9478L34.9585 30.854L34.9708 30.6709L34.9829 30.3922L34.9943 30.0283L34.9952 29.9363L34.995 29.8462L34.9966 29.757L34.9739 29.7674L34.8138 29.8574L34.7318 29.9014L34.653 29.9447L34.3296 30.1124L34.1706 30.1926L34.089 30.2315L34.0092 30.2716L33.929 30.3084L33.8474 30.3473L33.6063 30.4583L33.5273 30.4932L33.4468 30.5303L33.3658 30.564L33.2865 30.5992L33.2055 30.6329L33.1275 30.6662L33.0464 30.6999L32.8066 30.7958L32.7279 30.8259L32.6481 30.8576L32.5693 30.8876L32.4888 30.9164L32.41 30.9464L32.3326 30.9745L32.2518 31.0033L32.1723 31.0304L32.0948 31.0584L31.936 31.1121L31.7013 31.1872L31.625 31.2133L31.5468 31.2382L31.4665 31.262L31.1583 31.3541L31.0806 31.3741L31.0033 31.3972L30.9256 31.4172L30.8499 31.4381L30.7719 31.4581L30.6962 31.4793L30.6197 31.4973L30.545 31.5165L30.4683 31.5345L30.3938 31.5537L30.0907 31.6252L30.0165 31.6392L29.943 31.6565L29.7924 31.6888L29.7182 31.7028L29.646 31.7181L29.4234 31.7606L29.3504 31.7729L29.2783 31.7882L29.0594 31.825L28.9885 31.8383L28.9156 31.8506L28.772 31.8711L28.7023 31.8827L28.5587 31.9033L28.4891 31.9149L28.4184 31.9233L28.3467 31.9336L28.2761 31.9418L28.2077 31.9514L28.137 31.9599L28.0686 31.9695L27.9992 31.9759L27.9288 31.9844L27.8614 31.9918L27.792 31.9985L27.7246 32.0059L27.6542 32.0143L27.5881 32.02L27.5207 32.0277L27.4513 32.0341L27.3191 32.0455L27.2497 32.052L27.1836 32.0577L27.1187 32.0614L27.0874 32.0639L27.0538 32.1128L27.0147 32.1664L26.9775 32.2212L26.782 32.4887L26.7415 32.5442L26.7004 32.5965L26.6198 32.7073L26.5776 32.7616L26.5364 32.814L26.4518 32.9226L26.4083 32.9788L26.3237 33.0872L26.2782 33.1422L26.2358 33.1965L26.1448 33.3066L26.1024 33.3609L26.0114 33.471L25.9639 33.5248L25.9172 33.5818L25.8697 33.6356L25.8243 33.6906L25.7755 33.7464L25.728 33.8002L25.6308 33.9117L25.58 33.9663L25.5325 34.0201L25.4312 34.1292L25.3812 34.1869L25.3307 34.2415L25.2779 34.2951L25.2261 34.3516L25.1753 34.4061L25.1215 34.4614L25.0688 34.515L24.9074 34.6809L24.7955 34.7892L24.7417 34.8445L24.63 34.9529L24.5722 35.006L24.5151 35.062L24.4573 35.1151L24.3982 35.1699L24.3404 35.223L24.2224 35.3328L24.1613 35.3866L24.1015 35.4383L24.0426 35.4933L23.9795 35.5459L23.9184 35.5995L23.8562 35.6553L23.6673 35.8131L23.603 35.8674L23.4732 35.9701L23.409 36.0247L23.3439 36.076L23.2757 36.1282L23.2108 36.1798L23.0744 36.284L23.0075 36.3341L22.9393 36.3863L22.7992 36.4883L22.731 36.5404L22.6601 36.5883L22.5899 36.6392L22.2293 36.8882L22.0069 37.034L21.9296 37.0834L21.8556 37.1319L21.7034 37.2268L21.6253 37.2732L21.5493 37.3205L21.3151 37.4594L21.2338 37.5064L21.1537 37.5514L21.0901 37.5877L21.133 37.6105L21.2132 37.6556L21.2969 37.7L21.3771 37.7451L21.4588 37.7882L21.5423 37.8326L21.6251 37.8738L21.7085 37.9181L21.7915 37.9596L21.8763 38.002L21.9623 38.0424L22.047 38.0848L22.3048 38.2063L22.3941 38.246L22.5684 38.3232L22.6577 38.3631L22.7447 38.4016L22.9256 38.4773L23.0139 38.5138L23.3804 38.6576L23.4732 38.6914L23.5648 38.7274L23.6576 38.7614L23.7535 38.7945L23.8476 38.8266L23.9404 38.8606L24.0375 38.8919L24.1316 38.9238L24.227 38.9539L24.3241 38.9852L24.4194 39.0153L24.5166 39.0467L24.6129 39.0748L24.8097 39.1336L24.9076 39.16L25.1066 39.2148L25.2055 39.239L25.3052 39.2667L25.4061 39.2921L25.5063 39.3146L25.6072 39.3401L25.8113 39.3873L25.9145 39.4088L26.0156 39.4293L26.3257 39.4943L26.4281 39.5129L26.5338 39.5307L26.6383 39.5505L26.742 39.5671L26.9534 39.6028L27.0584 39.6174L27.1654 39.6333L27.2733 39.6472L27.3783 39.662L27.4865 39.6759L27.5925 39.6886L27.7 39.6996L27.808 39.7135L27.9167 39.7224L28.026 39.7344L28.3517 39.7611L28.4615 39.7681L28.57 39.7771L28.681 39.7821L28.7908 39.7892L28.9018 39.7942L29.0108 39.798L29.2352 39.8045L29.3444 39.8083L29.4577 39.8097L29.9036 39.8098L30.0161 39.8079L30.1299 39.8042L30.2427 39.8021L30.3545 39.7973L30.5824 39.7895L30.9216 39.7688L31.2645 39.7422L31.3781 39.7304L31.4937 39.7197L31.6072 39.7078L31.6282 39.7043L31.6767 39.6405L31.7452 39.5488Z" fill="white"/>
<path d="M25.8196 19.1984C25.8562 19.2197 25.8869 19.2498 25.9086 19.2856C25.9303 19.3214 25.9422 19.3618 25.9432 19.4026L26.0618 24.5679C26.0638 24.6513 26.0199 24.7272 25.9468 24.7673L21.4093 27.2568C21.3735 27.2764 21.3326 27.2863 21.2907 27.2854C21.2488 27.2846 21.2074 27.273 21.1706 27.2519L16.5017 24.574C16.4648 24.5528 16.4338 24.5227 16.4119 24.4868C16.39 24.4509 16.378 24.4104 16.377 24.3694L16.2561 19.1869C16.2551 19.1461 16.2652 19.1062 16.2853 19.0712C16.3054 19.0362 16.3348 19.0074 16.3706 18.9877L20.9161 16.4857C20.9521 16.4659 20.9933 16.4559 21.0355 16.4569C21.0776 16.4578 21.1193 16.4696 21.1562 16.4911L25.8196 19.1984Z" fill="#EA5CF7"/>
<path d="M53.5155 36L53.5155 10.1L62.9505 10.1C65.2692 10.1 67.1809 10.4453 68.6855 11.136C70.1902 11.802 71.3002 12.7517 72.0155 13.985C72.7555 15.2183 73.1255 16.6737 73.1255 18.351C73.1255 20.0283 72.7555 21.4837 72.0155 22.717C71.3002 23.9503 70.1902 24.9123 68.6855 25.603C67.1809 26.269 65.2692 26.602 62.9505 26.602L57.9555 26.602V36H53.5155ZM57.9555 22.754L62.5805 22.754C64.9239 22.754 66.5272 22.3963 67.3905 21.681C68.2539 20.941 68.6855 19.831 68.6855 18.351C68.6855 16.8957 68.2539 15.798 67.3905 15.058C66.5272 14.318 64.9239 13.948 62.5805 13.948H57.9555V22.754ZM85.35 36.407C83.6233 36.407 82.0323 36.0493 80.577 35.334C79.1217 34.594 77.95 33.484 77.062 32.004C76.174 30.524 75.73 28.6493 75.73 26.38V25.64C75.73 23.4693 76.1493 21.6687 76.988 20.238C77.8513 18.8073 78.986 17.7467 80.392 17.056C81.798 16.3407 83.3273 15.983 84.98 15.983C87.9647 15.983 90.2463 16.7847 91.825 18.388C93.4283 19.9913 94.23 22.2853 94.23 25.27V27.342L79.874 27.342C79.9233 28.674 80.207 29.747 80.725 30.561C81.243 31.375 81.909 31.967 82.723 32.337C83.537 32.6823 84.4127 32.855 85.35 32.855C86.756 32.855 87.7797 32.633 88.421 32.189C89.087 31.745 89.5433 31.1653 89.79 30.45H93.86C93.4653 32.3987 92.491 33.8787 90.937 34.89C89.4077 35.9013 87.5453 36.407 85.35 36.407ZM85.165 19.535C84.2523 19.535 83.4013 19.6953 82.612 20.016C81.8227 20.3367 81.1813 20.8423 80.688 21.533C80.1947 22.2237 79.9233 23.1487 79.874 24.308L90.16 24.308C90.1353 23.0747 89.901 22.1127 89.457 21.422C89.013 20.7313 88.421 20.2503 87.681 19.979C86.941 19.683 86.1023 19.535 85.165 19.535ZM98.3029 36V16.39H102.077V19.72C102.348 19.0293 102.718 18.4127 103.187 17.87C103.68 17.3027 104.272 16.8463 104.963 16.501C105.678 16.1557 106.48 15.983 107.368 15.983C107.985 15.983 108.441 16.0077 108.737 16.057C109.058 16.1063 109.28 16.1557 109.403 16.205V19.905C108.984 19.7817 108.601 19.6953 108.256 19.646C107.911 19.572 107.491 19.535 106.998 19.535C105.937 19.535 105.062 19.7817 104.371 20.275C103.68 20.7437 103.175 21.3603 102.854 22.125C102.533 22.865 102.373 23.6667 102.373 24.53V36H98.3029ZM120.869 36.407C119.142 36.407 117.551 36.0493 116.096 35.334C114.64 34.594 113.469 33.484 112.581 32.004C111.693 30.524 111.249 28.6493 111.249 26.38V25.64C111.249 23.4693 111.668 21.6687 112.507 20.238C113.37 18.8073 114.505 17.7467 115.911 17.056C117.317 16.3407 118.846 15.983 120.499 15.983C123.483 15.983 125.765 16.7847 127.344 18.388C128.947 19.9913 129.749 22.2853 129.749 25.27V27.342L115.393 27.342C115.442 28.674 115.726 29.747 116.244 30.561C116.762 31.375 117.428 31.967 118.242 32.337C119.056 32.6823 119.931 32.855 120.869 32.855C122.275 32.855 123.298 32.633 123.94 32.189C124.606 31.745 125.062 31.1653 125.309 30.45L129.379 30.45C128.984 32.3987 128.01 33.8787 126.456 34.89C124.926 35.9013 123.064 36.407 120.869 36.407ZM120.684 19.535C119.771 19.535 118.92 19.6953 118.131 20.016C117.341 20.3367 116.7 20.8423 116.207 21.533C115.713 22.2237 115.442 23.1487 115.393 24.308H125.679C125.654 23.0747 125.42 22.1127 124.976 21.422C124.532 20.7313 123.94 20.2503 123.2 19.979C122.46 19.683 121.621 19.535 120.684 19.535ZM133.821 36V16.39H137.595V19.683C138.064 18.6963 138.829 17.833 139.889 17.093C140.95 16.353 142.319 15.983 143.996 15.983C146.389 15.983 148.19 16.6367 149.398 17.944C150.607 19.2267 151.211 21.1137 151.211 23.605V36H147.141V24.53C147.141 22.8773 146.796 21.6317 146.105 20.793C145.415 19.9543 144.28 19.535 142.701 19.535C141.567 19.535 140.642 19.7817 139.926 20.275C139.236 20.7437 138.718 21.3603 138.372 22.125C138.052 22.865 137.891 23.6667 137.891 24.53V36H133.821ZM156.224 36V16.39H159.998V19.683C160.466 18.6963 161.231 17.833 162.292 17.093C163.352 16.353 164.721 15.983 166.399 15.983C168.791 15.983 170.592 16.6367 171.801 17.944C173.009 19.2267 173.614 21.1137 173.614 23.605V36H169.544V24.53C169.544 22.8773 169.198 21.6317 168.508 20.793C167.817 19.9543 166.682 19.535 165.104 19.535C163.969 19.535 163.044 19.7817 162.329 20.275C161.638 20.7437 161.12 21.3603 160.775 22.125C160.454 22.865 160.294 23.6667 160.294 24.53V36H156.224ZM178.996 36V16.39H183.066V36H178.996ZM181.031 14.17C180.266 14.17 179.637 13.9357 179.144 13.467C178.675 12.9737 178.441 12.3447 178.441 11.58C178.441 10.8153 178.675 10.1987 179.144 9.73C179.637 9.23667 180.266 8.99 181.031 8.99C181.796 8.99 182.412 9.23667 182.881 9.73C183.374 10.1987 183.621 10.8153 183.621 11.58C183.621 12.3447 183.374 12.9737 182.881 13.467C182.412 13.9357 181.796 14.17 181.031 14.17ZM194.334 36.407C192.928 36.407 191.719 36.148 190.708 35.63C189.721 35.0873 188.969 34.3473 188.451 33.41C187.933 32.4727 187.674 31.4243 187.674 30.265C187.674 28.3163 188.253 26.8733 189.413 25.936C190.572 24.974 192.274 24.493 194.519 24.493H200.624V23.42C200.624 21.94 200.291 20.9287 199.625 20.386C198.983 19.8187 197.96 19.535 196.554 19.535C195.296 19.535 194.371 19.7323 193.779 20.127C193.187 20.5217 192.841 21.0643 192.743 21.755H188.784C188.858 20.6203 189.215 19.6213 189.857 18.758C190.498 17.8947 191.398 17.2163 192.558 16.723C193.742 16.2297 195.135 15.983 196.739 15.983C198.342 15.983 199.736 16.2297 200.92 16.723C202.128 17.2163 203.053 17.9933 203.695 19.054C204.361 20.09 204.694 21.4713 204.694 23.198V31.005C204.694 32.041 204.706 32.9537 204.731 33.743C204.755 34.5077 204.817 35.26 204.916 36L201.216 36C201.142 35.4327 201.08 34.9517 201.031 34.557C201.006 34.1623 200.994 33.669 200.994 33.077C200.525 33.9897 199.711 34.779 198.552 35.445C197.417 36.0863 196.011 36.407 194.334 36.407ZM195.444 32.855C196.381 32.855 197.232 32.6947 197.997 32.374C198.786 32.0533 199.415 31.5723 199.884 30.931C200.377 30.2897 200.624 29.5127 200.624 28.6V27.527H195.259C194.223 27.527 193.384 27.749 192.743 28.193C192.126 28.637 191.818 29.2907 191.818 30.154C191.818 30.968 192.101 31.6217 192.669 32.115C193.261 32.6083 194.186 32.855 195.444 32.855ZM215.99 36.185C214.584 36.185 213.425 35.9877 212.512 35.593C211.624 35.1737 210.958 34.4953 210.514 33.558C210.095 32.596 209.885 31.3257 209.885 29.747V10.1L213.955 10.1V29.451C213.955 30.6597 214.153 31.4983 214.547 31.967C214.942 32.411 215.67 32.633 216.73 32.633C217.002 32.633 217.236 32.633 217.433 32.633C217.631 32.6083 217.828 32.5837 218.025 32.559V36.074C217.902 36.0987 217.705 36.1233 217.433 36.148C217.187 36.1727 216.928 36.185 216.656 36.185C216.41 36.185 216.188 36.185 215.99 36.185Z" fill="white"/>
</svg>
