<?xml version="1.0" encoding="UTF-8"?>
<svg id="Layer_1" xmlns="http://www.w3.org/2000/svg" version="1.1" viewBox="0 0 1920 577.7">
  <!-- Generator: Adobe Illustrator 29.5.1, SVG Export Plug-In . SVG Version: 2.1.0 Build 141)  -->
  <defs>
    <style>
      .st0 {
        fill: #fff;
      }

      .st1 {
        fill: none;
      }
    </style>
  </defs>
  <polygon class="st1" points="423.4 200.1 391.6 296.3 455.9 296.3 455.9 296.3 424.1 200.1 423.4 200.1"/>
  <path class="st0" d="M203.4,277.4c26.6-9.3,42.6-32.4,42.6-60.9s-9.6-36.5-21.9-47c-11.7-10.2-26.3-14.6-44.9-14.6h-86v24.9h-45.9v31.1h130.4v-26.3h1.2c11.4,0,18.3,2.1,24.5,6.8,6.8,5,11.1,13.7,11.1,25.1,0,18.6-12.3,35-37.4,35h-83.8v123.7h33.3v-94h42.6l45.5,94h39.6l-51-97.7h0Z"/>
  <rect class="st0" x="601.6" y="154.9" width="33.3" height="220.2"/>
  <polygon class="st0" points="767 154.9 733.7 154.9 733.7 375.1 874.3 375.1 874.3 343.6 767 343.6 767 154.9"/>
  <path class="st0" d="M1321.8,296.9c0,30.3-19.5,46.7-44.9,46.7s-44.9-16.4-44.9-46.7v-141.8h-33.3v145.6c0,45.8,34.7,76.4,78.2,76.4s78.2-30.6,78.2-76.4v-145.6h-33.3v141.8Z"/>
  <polygon class="st0" points="1583.7 311.5 1583 311.5 1483.5 154.9 1451.9 154.9 1451.9 375.1 1485.4 375.1 1485.4 218.7 1486 218.7 1585.5 375.1 1617 375.1 1617 154.9 1583.7 154.9 1583.7 311.5"/>
  <path class="st0" d="M1031.7,287.2v.2h43.7v89.6h34.4v-72c0-1.5.2-2.9.2-4.4v-44.9h-78.2v31.5Z"/>
  <path class="st0" d="M1073.4,220.1h35.3c-6.8-35.9-35.6-65.3-77.3-65.3s-58.4,20.4-68.9,39.6c-5.6,10.2-8.3,16.4-9.2,43.8h-.2v9c0,5.7-.2,12.2-.2,19.5v109.4h34.4v-74.4h-.2v-69.8c1.4-15.2,4.4-20.4,10.1-27.6,6.8-8.7,18.3-16.1,34.1-16.1s36.8,14.9,42,31.8Z"/>
  <rect class="st0" x="1698.4" y="358.2" width="154.6" height="15.5"/>
  <path class="st0" d="M409.9,154.9l-80.2,220.2h35.3l17-49.2h83.5l17,49.2h35.3l-80-220.2h-27.8ZM455.9,296.3h-64.2l31.8-96.2h.6l31.8,96.2h0Z"/>
</svg>