<?xml version="1.0" encoding="UTF-8"?>
<svg id="Layer_1" xmlns="http://www.w3.org/2000/svg" version="1.1" viewBox="0 0 546 182">
  <!-- Generator: Adobe Illustrator 29.5.1, SVG Export Plug-In . SVG Version: 2.1.0 Build 141)  -->
  <defs>
    <style>
      .st0, .st1 {
        fill: #fff;
      }

      .st1 {
        fill-rule: evenodd;
      }
    </style>
  </defs>
  <path class="st0" d="M398.1,131.2c-5.8,0-10.5-1-14.1-4.2-3.5-3.2-5.3-7.8-5-12.6v-48.1c0-5.2,1.5-9.5,5-12.6,3.6-3.1,8.3-4.2,14.1-4.2h31.2c5.8,0,10.5,1.1,14.1,4.2,3.5,3,5,7.4,5,12.5v48.1c.3,4.7-1.5,9.3-5,12.6-3.6,3.1-8.3,4.2-14.1,4.2h-31.2ZM422.3,115.5c2,0,3.8,0,5-1,1.2-1,2.1-2.4,2.1-4.2v-39.7c0-1.8-.8-3.2-2.1-4.2-1.1-1-3-1-5-1h-17.1c-2.2,0-4,0-5,1-1.3,1-2,2.6-2,4.2v39.7c0,1.8.8,3.2,2,4.2,1.1,1,2.9,1,5,1h17.1ZM361.1,130.4h-19.2V50.4h19.2v80h0ZM273.6,130.4h-19.1V50.4h20.2l30.2,48.9v-48.9h19.1v80h-20.2l-30.2-48.9v48.9h0ZM485.2,130.1h-19.1V50.1h20.1l30.3,48.9v-48.9h19.1v80h-20.2l-30.2-48.9v48.9h0ZM187.3,131.2c-5.8,0-10.6-1-14.2-4.2-3.5-3.2-5-7.5-5-12.6V50.3h19.2v59.8c0,1.8.8,3.2,2,4.2,1.1,1,2.9,1,5,1h16.1c2.2,0,4,0,5-1,1.1-1,2.1-2.4,2.1-4.2v-59.8h19.2v64c0,5-1.6,9.4-5.1,12.6-3.5,3.1-8.3,4.2-14.1,4.2h-30.4,0Z"/>
  <path class="st1" d="M107.1,115c0,26.8-21.7,48.5-48.5,48.5s-48.5-21.7-48.5-48.5h23.7c.2,13.5,11.3,24.4,24.8,24.3,13.4,0,24.4-10.8,24.7-24.2h23.8,0Z"/>
  <path class="st0" d="M120,102.3h23.8v-23.9h-23.8v23.9ZM107.1,78.4h-23.7v23.9h23.7v-23.9ZM46.7,102.3h23.9v-23.9h-23.9v23.9ZM34.1,78.4H10.2v23.9h23.9v-23.9Z"/>
  <path class="st1" d="M46.7,66.5c0-26.8,21.7-48.5,48.5-48.5s48.5,21.7,48.5,48.5h-23.7c-.3-13.5-11.3-24.3-24.8-24.2-13.4,0-24.4,10.8-24.7,24.2h-23.8Z"/>
</svg>