<?xml version="1.0" encoding="UTF-8"?>
<svg id="Layer_1" xmlns="http://www.w3.org/2000/svg" version="1.1" viewBox="0 0 330.4 101">
  <!-- Generator: Adobe Illustrator 29.5.1, SVG Export Plug-In . SVG Version: 2.1.0 Build 141)  -->
  <defs>
    <style>
      .st0 {
        fill: #4f8bff;
      }

      .st1 {
        fill: #fff;
      }
    </style>
  </defs>
  <path class="st1" d="M104.3,69.5v11h-6.6c-4.7,0-8.3-1.1-11-3.4-2.6-2.4-3.9-6.1-3.9-11.2v-16.8h-5.2v-10.7h5.2v-9.5h12.9v9.5h8.4v10.7h-8.4v16.9c0,1.2.4,2.1.9,2.7.6.5,1.7.8,3,.8h4.7Z"/>
  <path class="st1" d="M32.5,79.4c-2.5,1.2-5.3,1.9-8.2,1.9s-4.9-.5-7-1.6c-2.1-1-3.7-2.5-5-4.4-1.2-1.9-1.8-4-1.8-6.5,0-3.9,1.5-7,4.6-9.5,3-2.5,7.5-3.7,13.5-3.7h9.5c0-2.4-.8-4.1-1.9-5.4-1.2-1.3-2.8-2-4.8-2s-3.4.5-4.6,1.5c-1.2,1-2,2.3-2.4,3.9h-12.9c.6-3.1,1.8-5.8,3.7-8.2,1.8-2.4,4.1-4.4,7-5.7,2.8-1.4,6.1-2.1,9.6-2.1s7.2.8,10.2,2.2c3,1.5,5.3,3.6,6.9,6.3,1.7,2.7,2.5,5.9,2.5,9.6v24.8h-13v-5.9c-1.1,1.9-3,3.6-5.5,4.8h-.3ZM33.2,70.5c1.4-.7,2.5-1.7,3.4-3s1.3-2.8,1.3-4.4v-.5h-8c-2.1,0-3.7.4-4.7,1.2-1,.8-1.6,1.9-1.6,3.2s.4,2.5,1.4,3.2c1,.8,2.1,1.2,3.8,1.2s3-.4,4.4-1h0Z"/>
  <path class="st1" d="M71,19.7v60.8h-12.9v-47.9c0-7.1,5.8-12.9,12.9-12.9Z"/>
  <path class="st1" d="M126.5,38.3v42.2h-12.9v-42.2h12.9Z"/>
  <path class="st1" d="M159.3,69.5v11h-6.6c-4.7,0-8.3-1.1-11-3.4-2.6-2.4-3.9-6.1-3.9-11.2v-16.8h-5.2v-10.7h5.2v-9.5h12.9v9.5h8.4v10.7h-8.4v16.9c0,1.2.4,2.1.9,2.7.6.5,1.7.8,3,.8h4.7Z"/>
  <path class="st1" d="M208.2,38.3v42.2h-12.9v-5.7c-1.3,1.9-3.1,3.3-5.4,4.5-2.3,1.1-4.7,1.7-7.5,1.7s-6.1-.7-8.6-2.1c-2.5-1.5-4.4-3.5-5.7-6.2-1.4-2.7-2-5.9-2-9.6v-24.7h12.8v22.9c0,2.8.8,5,2.2,6.6,1.5,1.6,3.4,2.4,5.9,2.4s4.6-.8,6-2.4c1.5-1.6,2.2-3.8,2.2-6.6v-22.9h13Z"/>
  <path class="st1" d="M216.1,47.9c1.7-3.2,3.9-5.8,6.7-7.5s6-2.6,9.5-2.6,5.3.5,7.6,1.8c2.3,1.1,4.1,2.7,5.4,4.7v-24.4c7.1,0,12.9,5.8,12.9,12.9v47.8h-12.9v-6.1c-1.2,2-3,3.7-5.2,4.8-2.2,1.2-4.8,1.8-7.8,1.8s-6.6-.9-9.5-2.7c-2.8-1.8-5-4.4-6.7-7.6s-2.5-7.1-2.5-11.5.8-8.2,2.5-11.4h0ZM242.5,51.7c-1.8-1.9-3.9-2.8-6.6-2.8s-4.7,1-6.6,2.8c-1.8,1.8-2.7,4.4-2.7,7.6s.9,5.8,2.7,7.7c1.8,1.9,3.9,2.8,6.6,2.8s4.7-1,6.6-2.8c1.8-1.9,2.7-4.4,2.7-7.6s-.9-5.8-2.7-7.6h0Z"/>
  <path class="st1" d="M305.3,62.5h-29.2c.2,2.6,1.1,4.6,2.5,6,1.5,1.4,3.3,2.1,5.4,2.1,3.2,0,5.4-1.4,6.8-4.1h13.8c-.7,2.8-1.9,5.3-3.9,7.5-1.8,2.2-4.1,3.9-6.9,5.3-2.8,1.2-5.9,1.9-9.3,1.9s-7.8-.9-11.1-2.6-5.7-4.3-7.5-7.5-2.7-7.1-2.7-11.5.9-8.2,2.7-11.5c1.8-3.2,4.3-5.8,7.5-7.5,3.2-1.8,6.9-2.6,11.1-2.6s7.7.9,10.9,2.5,5.7,4.1,7.5,7.3,2.7,6.8,2.7,11.1,0,2.5-.3,3.8h0ZM292.3,55.3c0-2.2-.8-3.9-2.3-5.3s-3.4-1.9-5.7-1.9-3.9.6-5.4,1.9c-1.5,1.2-2.4,3-2.8,5.4h16.2Z"/>
  <path class="st0" d="M113.5,19.7h12.9c0,7.1-5.8,12.9-12.9,12.9,0,0,0-12.9,0-12.9Z"/>
  <path class="st0" d="M319.5,80.4h-12.9c0-7.1,5.8-12.9,12.9-12.9v12.9h0Z"/>
</svg>