<?xml version="1.0" encoding="UTF-8"?>
<svg id="Layer_1" xmlns="http://www.w3.org/2000/svg" version="1.1" viewBox="0 0 257 62">
  <!-- Generator: Adobe Illustrator 29.5.1, SVG Export Plug-In . SVG Version: 2.1.0 Build 141)  -->
  <defs>
    <style>
      .st0 {
        fill: #fff;
      }
    </style>
  </defs>
  <path class="st0" d="M82,23h25.2v3.5h-21.7v2.6h21.1v3.5h-21.1v2.4h21.7v3.5h-25.2v-15.5Z"/>
  <path class="st0" d="M115.2,38.5c-.7,0-1.3-.2-1.9-.5-.6-.3-1-.8-1.4-1.4-.3-.6-.5-1.2-.5-1.9v-1.2h3.5v.9c0,.2,0,.3.2.4.1.1.2.2.4.2h17.3c.2,0,.3,0,.4-.2.1-.1.2-.2.2-.4v-.8c0-.1,0-.3-.2-.3,0-.1-.2-.2-.4-.2l-17.7-1.2c-.7-.1-1.3-.3-1.9-.6-.5-.3-1-.7-1.3-1.3-.3-.6-.5-1.3-.5-2.1v-1.2c0-.6.1-1.2.4-1.8.3-.6.8-1,1.3-1.3.6-.3,1.2-.5,1.8-.5h18.1c.6,0,1.3.2,1.8.5.6.3,1,.8,1.4,1.4.3.6.5,1.2.5,1.8v1.1h-3.5v-.8c0-.2,0-.3-.2-.4,0-.1-.2-.2-.4-.2h-17.3c-.2,0-.3,0-.4.2-.1.1-.2.2-.2.4v.8h0c0,.2,0,.2,0,.2,0,0,0,.2.2.2,0,0,.2,0,.3.1l17.8,1.2c.7.1,1.4.4,1.9.7.5.3,1,.7,1.3,1.3.3.5.4,1.1.4,1.9v1.5c0,.7-.1,1.3-.4,1.9-.3.5-.8,1-1.3,1.3-.5.3-1.1.5-1.8.5h-18.2Z"/>
  <path class="st0" d="M145.1,38.5c-.6,0-1.2-.2-1.8-.5-.6-.3-1-.8-1.4-1.4-.3-.6-.5-1.2-.5-1.9v-8c0-.7.2-1.3.5-1.9.3-.6.8-1,1.4-1.4.6-.3,1.2-.5,1.8-.5h18c.6,0,1.2.2,1.8.5.6.3,1,.8,1.4,1.4.3.6.5,1.2.5,1.8v2.8h-3.5v-2.5c0-.2,0-.3-.2-.4-.1-.1-.2-.2-.4-.2h-17.3c-.2,0-.3,0-.4.2-.1.1-.2.2-.2.4v7.3c0,.1,0,.2,0,.3,0,0,.1.1.2.2,0,0,.2,0,.3,0h17.3c.2,0,.3,0,.4-.2.1-.1.2-.3.2-.4v-2.6h3.5v3c0,.7-.2,1.3-.5,1.9-.3.6-.8,1-1.4,1.4-.6.3-1.2.5-1.9.5h-18Z"/>
  <path class="st0" d="M171.5,23h3.5v6.2h18.7v-6.2h3.5v15.5h-3.5v-5.8h-18.7v5.8h-3.5v-15.5Z"/>
  <path class="st0" d="M201.8,23h25.2v3.5h-21.7v2.6h21.1v3.5h-21.1v2.4h21.7v3.5h-25.2v-15.5Z"/>
  <path class="st0" d="M231.1,23h21.8c.6,0,1.2.2,1.8.5.5.3,1,.7,1.3,1.3.3.5.5,1.1.5,1.8v3.8c0,.8-.2,1.5-.6,2.1-.4.6-1,1-1.7,1.2l2.6,4.8h-4l-2.6-4.6h-15.7v4.6h-3.5v-15.5ZM252.4,30.4c.2,0,.3,0,.4-.2.1-.1.2-.2.2-.4v-2.7c0-.2,0-.3-.2-.4-.1-.1-.2-.2-.4-.2h-17.8v3.9h17.8Z"/>
  <path class="st0" d="M7.2,14.5h40.7l5,6.5H12.3l-5-6.5Z"/>
  <path class="st0" d="M7.2,27.4h40.7l5,6.5H12.3l-5-6.5Z"/>
  <path class="st0" d="M7.2,40.3h40.7l5,6.5H12.3l-5-6.5Z"/>
  <path class="st0" d="M12.2,33.9v6.5h5.4l-5.4-6.5Z"/>
  <path class="st0" d="M12.2,20.9v6.5h5.4l-5.4-6.5Z"/>
</svg>