<?xml version="1.0" encoding="UTF-8"?>
<svg id="Layer_1" xmlns="http://www.w3.org/2000/svg" version="1.1" viewBox="0 0 1262.9 529.3">
  <!-- Generator: Adobe Illustrator 29.5.1, SVG Export Plug-In . SVG Version: 2.1.0 Build 141)  -->
  <defs>
    <style>
      .st0 {
        font-family: SansSerifCollection, 'Sans Serif Collection';
        font-size: 300px;
      }

      .st0, .st1 {
        fill: #fff;
      }
    </style>
  </defs>
  <path class="st1" d="M132.7,333.2c1.2,2.5,2.5,4.9,3.9,7.3,2,3.5,3,5.7,2.7,6.1-.2.4-12.4,13.5-27.1,29-14.7,15.6-26.7,28.3-26.9,28.7,14.8,14.9,29.8,29.5,45,43.8l1.6,1.3,23.3-24.6,26.6-28.2,3.4-3.5,3.2,2.1c4.4,2.9,9,5.5,13.8,7.8,2.9-15.3,8.2-30.3,14.6-44.9l-2.2-1.1c-19.4-10-31.3-31-38.4-53.3-5.3,2.1-10.5,4.6-15.4,7.4-10.3,7-18.1,15.2-28,22ZM216.7,152.8c-2.8-4.3-5.9-8.3-8.9-12.5-6.7-1.7-12.7-5.5-16.9-11l-3.6,2.2-4.1-4.1c-7.4-7.2-14.8-14.3-22.3-21.5-10-9.6-20.1-19.4-22.6-21.8l-4.4-4.3-22,23.4c-12.1,12.8-22.1,23.6-22.2,23.8s10.8,11.1,24.2,24l25.9,25,1.6,1.4-2.8,4.6c-1,1.7-2,3.4-2.9,5.1,14.1,9.3,28.5,17.9,43.2,26.6,9.5-17.9,27.6-33.3,48.1-43.3-2.3-3.4-4.6-6.8-7-10.1-1.8-2.5-1.8-5.1-3.2-7.6ZM403,183l-1.9-3.4,25.9-27.4c14.2-15,25.8-27.5,25.7-27.8-.3-.9-45.7-44.3-46.3-44.3s-11.8,11.8-25.4,26.2c-13.6,14.4-24.9,26.2-25.2,26.3s-1.4-.5-2.7-1.4c-2.6-1.7-15.4,4-23.8,6-4.7,10.5-8.8,21.2-12.9,31.8,4.5,2.3,8.9,5,13,8,6.7,4.8,22.7,17.4,27.4,24.2,1.2,1.7,2.2,3.4,3.3,5.2,15-6.4,30.4-12.1,45.5-18.7-.9-1.7-1.7-3.3-2.5-4.6h0ZM405.9,354.2l-6.1-5.9,2.8-4.7c1.1-1.8,2.1-3.6,3.1-5.5-12.8-11.3-24.9-22.4-38.7-33.1-5,15-12.6,28.3-22.9,38-5.4,5.1-12,9.4-19.5,12.9l.7,3.4c2.9,13.7,10.8,24.2,16.6,36.5.7,1.5,1.3,3.1,1.8,4.7,1.9-1,3.7-2.1,5.5-3.2l4.7-2.9,4.9,5c17.1,16.6,34.2,33.1,51.4,49.6.5.1,44.6-46.6,44.6-47.2,0-.3-30.4-29.7-49-47.4h0Z"/>
  <path class="st1" d="M270.3,422.7c-87.3,0-158-70.8-157.9-158.1,0-63.4,38-120.7,96.4-145.4,80.4-34,173.1,3.7,207,84.1,34,80.4-3.7,173.1-84.1,207-19.5,8.2-40.4,12.5-61.5,12.4ZM270.3,168.6c-53,0-96.1,43.1-96.1,96.1s43.1,96.1,96.1,96.1,96.1-43.1,96.1-96.1-43.1-96.1-96.1-96.1Z"/>
  <text class="st0" transform="translate(587.1 358.6)"><tspan x="0" y="0">Frax</tspan></text>
</svg>