<?xml version="1.0" encoding="UTF-8"?>
<svg id="Layer_1" xmlns="http://www.w3.org/2000/svg" version="1.1" viewBox="0 0 454 83">
  <!-- Generator: Adobe Illustrator 29.5.1, SVG Export Plug-In . SVG Version: 2.1.0 Build 141)  -->
  <defs>
    <style>
      .st0 {
        fill: #fff;
        fill-rule: evenodd;
      }
    </style>
  </defs>
  <path class="st0" d="M312.2,35.8c1.3.4,2.7.8,4,1.2,5.4,1.8,10.1,4.4,10.1,9.8s-5.5,11.5-14.4,11.5-17.2-7.9-17.2-7.9l4.2-4.3s5.1,6.2,12.6,6.2,8.1-1.3,8.1-4.9-3.3-4-7.4-5.2c-.4-.1-.9-.3-1.5-.4h0c-6.4-1.8-14-3.9-14-10.9s4.3-10.2,14.1-10.2,13.1,5.6,13.1,5.6l-3.8,4.5s-3.5-4.3-9.3-4.3-7.4,1.3-7.4,4,4,3.6,8.6,5h0ZM200.3,26.9c-3.5,0-6.3,1.5-8.1,4-1.9-2.5-4.7-4-8.1-4-6.5,0-11.7,5.2-11.7,11.7v19.2h6.8v-20c0-2.8,2.2-5,5.1-5s5,2.2,5,5v20.1h6.4v-20.1c0-2.8,2.2-5,5-5s5.1,2.2,5.1,5v20h6.8v-19.2c0-6.4-5.4-11.7-11.9-11.7h0ZM363,27.6v20.1c0,2.8-2.2,5.1-5,5.1s-5.1-2.2-5.1-5.1v-20.1h-6.3v20.1c0,2.8-2.2,5.1-5.1,5.1s-5.1-2.2-5.1-5.1v-20.1h-6.8v19.2c0,6.5,5.2,11.7,11.7,11.7s6.3-1.5,8.1-4c1.9,2.5,4.7,4,8.1,4,6.5,0,11.7-5.2,11.7-11.7v-19.2h-6.6,0ZM236.8,30.8c1.8-2.5,4.7-4,8.1-4,6.5,0,11.7,5.3,11.9,11.7v19.2h-6.8v-20c0-2.8-2.3-5-5.1-5s-5,2.3-5,5v20.1h-6.4v-20.1c0-2.8-2.2-5-5-5s-5.1,2.3-5.1,5v20h-6.8v-19.2c0-6.5,5.2-11.7,11.7-11.7s6.3,1.5,8.1,4h0ZM425.5,27c-4.4,0-7.5,1.7-9.6,4.4l-.5-3.7h-5.9v39.8h6.8v-13.1c2.1,2.5,5.1,4,9.3,4,9,0,14.5-7.2,14.5-15.7s-5.4-15.7-14.5-15.7ZM424.7,52.6c-5.5,0-8.5-4.4-8.5-9.8s3-9.8,8.5-9.8,8.5,4.4,8.5,9.8-3,9.8-8.5,9.8ZM160.7,31.3c-2.1-2.7-5.1-4.4-9.5-4.4-9,0-14.5,7.2-14.5,15.7s5.5,15.7,14.5,15.7,7.4-1.7,9.5-4.4l.6,3.8h6v-30.1h-6l-.6,3.7h0ZM151.9,52.6c-5.5,0-8.5-4.4-8.5-9.8s3-9.8,8.5-9.8,8.5,4.4,8.5,9.8-3,9.8-8.5,9.8ZM275.5,27c4.4,0,7.4,1.7,9.5,4.4l.6-3.7h6v30.1h-6l-.6-3.8c-2,2.7-5.1,4.4-9.5,4.4-9,0-14.5-7.2-14.5-15.7s5.5-15.7,14.5-15.7h0ZM267.8,42.7c0,5.4,3,9.8,8.5,9.8s8.5-4.4,8.5-9.8-3-9.8-8.5-9.8-8.5,4.4-8.5,9.8ZM397.9,31.3c-2.1-2.7-5.1-4.4-9.5-4.4-9,0-14.5,7.2-14.5,15.7s5.5,15.7,14.5,15.7,7.4-1.7,9.5-4.4l.6,3.8h6v-30.1h-6l-.6,3.7h0ZM389.2,52.6c-5.5,0-8.5-4.4-8.5-9.8s3-9.8,8.5-9.8,8.5,4.4,8.5,9.8-3,9.8-8.5,9.8ZM117,45v-5.5h15.5v18.2h-5l-.2-6.9c-2.5,4.4-6.8,7.5-13.4,7.5-11.8,0-18.6-9.7-18.6-18.7s6.8-18.7,18.6-18.7,14.6,5.1,17.4,11.3l-4.4,1.6-1.7.6c-1.8-4.9-6.3-7.6-11.2-7.6s-11.8,4.9-11.8,12.8,5.2,12.8,11.8,12.8,9.1-2.8,10.9-7.5h-7.8Z"/>
  <path class="st0" d="M76.9,15.9c.9,0,1.6.8,1.6,1.6-.3,10.5-3.5,20.4-9,27.9-6.1,8.3-14.4,12.9-23.2,12.9s-12.8-2.5-18-7.1c-.5-.4-.7-1.1-.4-1.8.6-1.7,1.3-3.3,2.1-4.9.5-.9,1.8-1.1,2.5-.4,3.9,3.9,8.7,6.1,13.8,6.1s13.1-4.1,17.6-10.7c-4.4-6.6-10.7-10.7-17.6-10.7-13.1,0-23.7,14.6-24.3,33,0,.8-.8,1.5-1.6,1.5h-4.7c-.9,0-1.6-.8-1.6-1.6.3-8,2.1-15.6,5.5-22.1-3.3-6.6-5.2-14.1-5.5-22.2,0-.9.7-1.6,1.6-1.6h4.8c.8,0,1.6.7,1.6,1.5.2,5.2,1.1,10,2.7,14.3,5.9-7,13.5-10.8,21.6-10.8s15.7,3.8,21.6,10.8c1.6-4.4,2.6-9.2,2.7-14.3,0-.9.8-1.5,1.6-1.5h4.8,0ZM73.2,46.5h0c.8-1.1,2.4-.9,2.8.4,1.5,4.7,2.4,9.7,2.5,14.9,0,.9-.7,1.6-1.6,1.6h-4.8c-.8,0-1.6-.7-1.6-1.5,0-3.3-.6-6.5-1.3-9.5-.1-.5,0-1.1.4-1.5.9-1.1,1.8-2.1,2.7-3.3.3-.4.6-.8.8-1.1h0Z"/>
</svg>