<svg width="278" height="308" viewBox="0 0 278 308" fill="none" xmlns="http://www.w3.org/2000/svg">
<path d="M163.185 127.066H111.782C109.471 127.066 107.721 129.088 108.001 131.39L113.953 180.343C114.233 182.296 112.693 184.039 110.732 184.039H80.6887C58.4889 184.039 40.491 165.978 40.491 143.663V48.2659C40.561 25.9509 58.5589 7.88965 80.6887 7.88965H137.484C139.585 7.88965 141.265 9.56328 141.265 11.6553V62.0734C141.265 64.1654 142.946 65.8391 144.977 65.8391H163.115C164.796 65.8391 166.126 67.164 166.126 68.9074V124.067C166.126 125.741 164.796 127.136 163.115 127.136L163.185 127.066Z" fill="url(#paint0_linear_33_24918)"/>
<path d="M130.36 184.109H188.136C203.122 184.109 214.607 180.134 222.661 172.254C230.644 164.374 234.636 152.798 234.636 137.596V13.3987C234.636 10.3304 232.185 7.88965 229.104 7.88965H157.952C155.851 7.88965 154.171 9.63301 154.171 11.725V49.5909C154.171 51.4737 155.641 52.9382 157.532 52.9382H174.339C176.931 52.9382 179.102 55.0999 179.102 57.6801V130.413C179.102 132.854 178.191 134.946 176.37 136.62C174.76 138.154 170.838 138.851 164.675 138.851H125.248C123.217 138.851 121.676 140.664 121.956 142.617L127.069 180.971C127.279 182.644 128.749 183.9 130.43 183.9L130.36 184.109Z" fill="url(#paint1_linear_33_24918)"/>
<path d="M46.2503 230C50.7315 230 53.8185 233.522 53.8185 237.853C53.8185 242.185 50.6983 245.707 46.2503 245.707C41.8024 245.707 38.6821 242.009 38.6821 237.853C38.6821 233.698 41.8024 230 46.2503 230ZM39.4788 248.207H53.0219V292.227H39.4788V248.242V248.207Z" fill="white"/>
<path d="M78.006 246.853C82.6873 246.853 85.8429 248.52 87.9235 250.188C89.1719 251.195 90.1775 252.272 90.9404 253.522H91.7727V248.104H105.955V295.172C105.955 301.91 100.511 307.364 93.7839 307.364H64.7248V295.31H89.3106C90.6977 295.31 91.8073 294.199 91.8073 292.809V284.82H90.9751C90.2122 286.001 89.2413 287.078 87.9582 287.981C85.8776 289.579 82.722 291.073 78.0406 291.073C67.707 291.073 58.8644 282.319 58.8644 268.945C58.8644 255.572 67.707 246.818 78.0406 246.818L78.006 246.853ZM82.5833 278.984C87.9929 278.984 91.738 275.302 91.738 268.98C91.738 262.658 87.9929 258.976 82.5833 258.976C77.1737 258.976 73.4286 262.658 73.4286 268.98C73.4286 275.302 77.1737 278.984 82.5833 278.984Z" fill="white"/>
<path d="M125.061 276.965C125.302 277.859 125.816 278.615 126.468 279.268C127.702 280.506 129.588 281.503 132.881 281.503C137.099 281.503 138.642 280.265 138.642 278.615C138.642 276.725 135.761 275.796 132.058 274.903C124.478 273.184 113.092 270.95 113.092 260.018C113.092 253.246 119.197 246.818 131.646 246.818C141.043 246.818 145.981 250.531 149.102 254.071C150.851 256.237 151.983 258.609 152.635 261.256H139.054C138.814 260.5 138.471 259.778 137.888 259.193C136.996 258.196 135.316 257.131 132.435 257.131C129.143 257.131 127.496 258.368 127.496 260.018C127.496 262.012 130.309 262.837 134.184 263.559C141.694 265.278 153.046 267.203 153.046 278.168C153.046 285.593 146.461 292.228 132.846 292.228C123.107 292.228 117.688 288.343 114.636 284.631C112.818 282.396 111.584 279.853 111 276.965H125.027H125.061Z" fill="white"/>
<path d="M175.586 246.818C179.921 246.818 183.076 248.639 185.33 250.356C186.578 251.352 187.653 252.486 188.486 253.826H189.318V248.055H203.501V290.991H189.318V285.22H188.486C187.653 286.629 186.578 287.797 185.33 288.758C183.076 290.476 179.921 292.228 175.586 292.228C165.252 292.228 156.41 283.64 156.41 269.523C156.41 255.406 165.252 246.818 175.586 246.818ZM180.163 280.24C185.573 280.24 189.318 276.53 189.318 269.523C189.318 262.516 185.573 258.806 180.163 258.806C174.754 258.806 171.009 262.516 171.009 269.523C171.009 276.53 174.754 280.24 180.163 280.24Z" fill="white"/>
<path d="M223.105 248.5L228.084 277.08H229.329L234.724 248.5H251.358L256.752 277.08H257.997L262.977 248.5H277.501L268.786 292.227H248.833L243.438 263.647H242.609L237.214 292.227H217.261L208.546 248.5H223.105Z" fill="white"/>
<path d="M2.13955 292.227L0 278.745H13.5388C15.7485 278.745 17.1164 278.496 17.6776 277.962C18.3089 277.393 18.6246 276.682 18.6246 275.828V245.093H8.73355V231.682H33.6365V276.255C33.6365 281.484 32.2335 285.468 29.3925 288.172C26.5514 290.876 22.4828 292.227 17.1865 292.227H2.10447H2.13955Z" fill="white"/>
<defs>
<linearGradient id="paint0_linear_33_24918" x1="40.561" y1="95.9644" x2="166.196" y2="95.9644" gradientUnits="userSpaceOnUse">
<stop stop-color="#0066FF"/>
<stop offset="1" stop-color="#E3EBFF"/>
</linearGradient>
<linearGradient id="paint1_linear_33_24918" x1="121.886" y1="95.9644" x2="234.636" y2="95.9644" gradientUnits="userSpaceOnUse">
<stop stop-color="white"/>
<stop offset="1" stop-color="#E3E7FF"/>
</linearGradient>
</defs>
</svg>
