<?xml version="1.0" encoding="utf-8"?>
<!-- Generator: Adobe Illustrator 28.0.0, SVG Export Plug-In . SVG Version: 6.00 Build 0)  -->
<svg version="1.1" id="a" xmlns="http://www.w3.org/2000/svg" xmlns:xlink="http://www.w3.org/1999/xlink" x="0px" y="0px"
	 viewBox="0 0 1595 615.8" style="enable-background:new 0 0 1595 615.8;" xml:space="preserve">
<style type="text/css">
	.st0{fill:#FFFFFF;}
	.st1{fill:url(#SVGID_1_);}
	.st2{fill:url(#SVGID_00000134225525872885794090000012920937501276913283_);}
	.st3{fill:url(#SVGID_00000039129244515659132070000009753469041367229082_);}
	.st4{fill:url(#SVGID_00000041278634266581811990000007373717951791099793_);}
</style>
<g>
	<g>
		<g>
			<path class="st0" d="M546.5,281.8H197.7c-7.2,0-13.1-5.6-13.1-12.5c0-81.8,84.1-148.4,187.5-148.4c47.1,0,94.9,16.7,131.1,45.9
				c35.8,28.9,56.4,66.2,56.4,102.4C559.6,276.2,553.7,281.8,546.5,281.8L546.5,281.8z M202.2,264.4h339.8
				c-3.9-59.3-76.7-125.9-169.8-125.9S205.8,195.6,202.2,264.4L202.2,264.4z"/>
			<path class="st0" d="M501.3,460.2H242.5c-31.7,0-57.6-26-57.6-57.9v-22.6c0-7.3,5.9-13.2,13.2-13.2h22.8c0.4,0,1.3,0,2.3,0.2l0,0
				c0.6,0.1,1.2,0.3,1.9,0.5c0.3,0.1,0.7,0.2,1,0.4l1.6,0.8c0.5,0.3,0.8,0.6,1.2,0.8c1.4,1,2.6,2.4,3.5,4l0.4,0.8
				c0.2,0.3,0.3,0.7,0.5,1.1c0.5,1.5,0.8,3,0.8,4.6v15.1c0,5,5.3,9.7,11,9.7c5.2,0,10.6-3.9,10.6-10.5v-7.3c0-1.1,0.1-2,0.2-3
				c0-0.4,0.1-0.7,0.2-1.1c0.1-0.3,0.1-0.7,0.2-1l0.3-0.9c0.4-1.1,0.8-2.2,1.3-3.1c0.3-0.6,0.7-1.3,1.1-1.9l1-1.4
				c0.8-0.9,1.6-1.8,2.4-2.5c0.4-0.4,0.9-0.8,1.4-1.2c0.3-0.2,0.7-0.6,1.3-0.9c0.3-0.2,0.7-0.4,1-0.6c1.5-0.9,3.1-1.5,4.8-1.9
				c0.4-0.1,0.8-0.2,1.3-0.3c0.5-0.1,0.9-0.2,1.4-0.2l0.9-0.1c0.3,0,0.7,0,1.1,0c0.1,0,0.5,0,0.9,0l0,0c0.3,0,0.7,0,1,0l0.4,0
				c0,0,1.7,0.2,2.3,0.3l0,0c1,0.2,2.1,0.6,2.8,0.8c0.9,0.3,1.7,0.6,2.6,1.1c0.7,0.3,1.3,0.7,2,1.2c1.1,0.8,2,1.6,2.9,2.4
				c4.3,4.3,5.5,10.2,5.8,12.6c0.2,1.2,0.3,1.8,0.5,2.6c0.1,0.6,0.3,1.2,0.5,2.2l0,0c0,0,1.8,5,7.5,5c4.5,0,6.5-1.5,7.7-5.7
				c0.3-1.2,0.5-3.8,0.7-5.8c0.5-6.3,1.5-16.8,11.2-16.8c5.9,0,221.5,0,221.5,0l0,0c7.3,0,13.2,5.9,13.2,13.2v22.6
				C558.8,434.1,533,460.1,501.3,460.2L501.3,460.2z M202.4,383.9v18.4c0,22.3,18,40.4,40.1,40.4h258.7c22.1,0,40.1-18.1,40.1-40.4
				v-18.4c-27.3,0-177.8,0-210.9,0c0,0.3-0.1,0.6-0.1,0.9c-0.3,3.1-0.5,6.2-1.3,8.9c-3.2,11.8-12.2,18.6-24.5,18.6
				c-15.5,0-23.3-12.7-24.6-18.9c-0.2-0.8-0.3-1.3-0.4-1.8c-0.3-1.3-0.5-2.2-0.8-4.2c-0.2-1.2-0.6-2.3-0.9-2.6l-0.3-0.3
				c0,0-0.1-0.1-0.2-0.1l-0.7-0.3c-0.2-0.1-0.4-0.1-0.5-0.2H276l-0.8,0.1c-0.1,0-0.2,0.1-0.3,0.1l-0.8,0.6c0,0-0.1,0.1-0.1,0.1
				c0,0-0.1,0.1-0.1,0.1l-0.4,0.6c0,0,0,0.1-0.1,0.2l-0.1,0.7v7.4c0,15.4-12.6,28-28.1,28s-28.5-12.5-28.5-27.2v-10.9L202.4,383.9
				L202.4,383.9z M275.7,383.9l-0.6,0c0.2,0,0.3,0,0.5,0C275.6,384,275.7,383.9,275.7,383.9L275.7,383.9L275.7,383.9z M227.5,368.2
				L227.5,368.2L227.5,368.2z"/>
		</g>
		
			<linearGradient id="SVGID_1_" gradientUnits="userSpaceOnUse" x1="186.1861" y1="786.3049" x2="557.6011" y2="786.3049" gradientTransform="matrix(1 0 0 1 0 -462)">
			<stop  offset="0" style="stop-color:#9D00FF"/>
			<stop  offset="1" style="stop-color:#592AFB"/>
		</linearGradient>
		<rect x="186.2" y="308.4" class="st1" width="371.4" height="31.8"/>
	</g>
	<g>
		<g>
			<path class="st0" d="M750.4,235.7h18.9v103.5c0,10.7-2.5,20.2-7.5,28.6c-5,8.4-12.1,15-21.2,19.8c-9.1,4.8-19.8,7.2-32.1,7.2
				c-12.3,0-23-2.4-32.1-7.2c-9.1-4.8-16.2-11.4-21.2-19.8c-5-8.4-7.5-17.9-7.5-28.6V235.7h18.9v102c0,7.6,1.7,14.4,5,20.4
				c3.4,5.9,8.2,10.6,14.4,14c6.2,3.4,13.7,5.1,22.4,5.1c8.7,0,16.2-1.7,22.5-5.1c6.3-3.4,11.1-8,14.4-14c3.3-5.9,5-12.7,5-20.4
				V235.7z"/>
			<path class="st0" d="M798.7,235.7h22.6l53.2,129.8h1.8l53.1-129.8H952v156.4h-17.7V273.3h-1.5l-48.9,118.8h-17.1l-48.9-118.8
				h-1.5v118.8h-17.7V235.7z"/>
			<path class="st0" d="M987.7,392.1h-19.9l57.4-156.4h19.5l57.4,156.4h-19.9l-46.7-131.6h-1.2L987.7,392.1z M995,331h80v16.8h-80
				V331z"/>
			<path class="st0" d="M1118.1,235.7h22.6l53.2,129.8h1.8l53.1-129.8h22.6v156.4h-17.7V273.3h-1.5l-48.9,118.8h-17.1l-48.9-118.8
				h-1.5v118.8h-17.7V235.7z"/>
			<path class="st0" d="M1319.6,235.7v156.4h-18.9V235.7H1319.6z"/>
		</g>
		<g>
			
				<linearGradient id="SVGID_00000110463261310452972690000007863296435323913865_" gradientUnits="userSpaceOnUse" x1="971.1527" y1="391.2979" x2="1201.6176" y2="349.8142" gradientTransform="matrix(0 1 -1 0 1753.113 -830.2558)">
				<stop  offset="0" style="stop-color:#9D00FF"/>
				<stop  offset="1" style="stop-color:#592AFB"/>
			</linearGradient>
			<path style="fill:url(#SVGID_00000110463261310452972690000007863296435323913865_);" d="M1352.4,256v-20.3h57.2v20.4
				c0,5.8-1.1,10.7-3.4,14.9c-2.3,4.2-5.6,7.3-9.8,9.6c-4.3,2.2-9.4,3.4-15.3,3.4c-6,0-11.1-1.1-15.4-3.4c-4.3-2.2-7.6-5.5-9.9-9.6
				C1353.6,266.8,1352.4,261.8,1352.4,256z M1362.8,247.8v7.7c0,3.6,0.6,6.6,1.9,9c1.3,2.4,3.3,4.3,5.9,5.5
				c2.7,1.2,6.2,1.9,10.4,1.9c4.2,0,7.7-0.6,10.4-1.9c2.7-1.2,4.7-3.1,5.9-5.5s1.9-5.4,1.9-9v-7.7H1362.8z"/>
			
				<linearGradient id="SVGID_00000166660597773603574140000014239181391334322856_" gradientUnits="userSpaceOnUse" x1="973.451" y1="404.0663" x2="1203.9159" y2="362.5826" gradientTransform="matrix(0 1 -1 0 1753.113 -830.2558)">
				<stop  offset="0" style="stop-color:#9D00FF"/>
				<stop  offset="1" style="stop-color:#592AFB"/>
			</linearGradient>
			<path style="fill:url(#SVGID_00000166660597773603574140000014239181391334322856_);" d="M1352.4,296.4v-13l57.2,19.7v15.6
				l-57.2,19.7v-13l44.1-14.3v-0.4L1352.4,296.4z M1374.9,295.6v30.6h-9.4v-30.6H1374.9z"/>
			
				<linearGradient id="SVGID_00000116944234633360868590000003506748784985350792_" gradientUnits="userSpaceOnUse" x1="974.8463" y1="411.8173" x2="1205.311" y2="370.3336" gradientTransform="matrix(0 1 -1 0 1753.113 -830.2558)">
				<stop  offset="0" style="stop-color:#9D00FF"/>
				<stop  offset="1" style="stop-color:#592AFB"/>
			</linearGradient>
			<path style="fill:url(#SVGID_00000116944234633360868590000003506748784985350792_);" d="M1381,392.1c-6.2,0-11.5-1.2-15.9-3.5
				s-7.7-5.6-10-9.6c-2.3-4-3.4-8.6-3.4-13.6c0-5.1,1.2-9.6,3.5-13.7c2.3-4,5.7-7.2,10-9.6c4.4-2.3,9.7-3.5,15.9-3.5
				c6.2,0,11.5,1.2,15.9,3.5c4.4,2.3,7.7,5.5,10,9.6c2.3,4,3.4,8.6,3.4,13.7c0,5-1.2,9.6-3.4,13.6c-2.3,4-5.6,7.3-10,9.6
				C1392.6,390.9,1387.3,392.1,1381,392.1z M1381,379.9c4,0,7.4-0.6,10.2-1.8s4.9-2.9,6.3-5.1c1.4-2.2,2.2-4.7,2.2-7.7
				c0-2.9-0.7-5.5-2.2-7.7c-1.4-2.2-3.5-3.9-6.3-5.1s-6.2-1.8-10.2-1.8s-7.4,0.6-10.2,1.8c-2.8,1.2-4.9,2.9-6.3,5.1
				c-1.4,2.2-2.2,4.7-2.2,7.7c0,2.9,0.7,5.5,2.2,7.7c1.4,2.2,3.5,3.9,6.3,5.1C1373.6,379.3,1377,379.9,1381,379.9z"/>
		</g>
	</g>
</g>
</svg>
