<?xml version="1.0" encoding="UTF-8"?>
<svg id="Layer_1" xmlns="http://www.w3.org/2000/svg" version="1.1" viewBox="0 0 1665.4 600">
  <!-- Generator: Adobe Illustrator 29.5.1, SVG Export Plug-In . SVG Version: 2.1.0 Build 141)  -->
  <defs>
    <style>
      .st0 {
        fill: #fff;
      }
    </style>
  </defs>
  <path class="st0" d="M468.4,221.3l81.9,221.9h57.2l81.9-221.9h-49.4l-60.2,171.6-61.1-171.6h-50.3ZM698.5,272.9c-9.1,17.3-13.5,37.3-13.5,59.9s4.3,42.5,13.9,59.4c9.1,16.9,23,30.7,39.9,39.9,17.3,9.5,37.3,13.9,60.7,13.9s48.5-7,66.3-21.6c17.7-14.3,28.6-32.9,32.9-55.4h-46.8c-3.4,12.6-10,22.1-19.5,29.1-10,7-22.1,10-36.4,10s-33-5.7-43.8-16.9c-11.3-11.3-17.3-26.4-18.2-45.9v-2.6h167.2c.9-5.9,1.3-11.8,1.3-17.7-.4-21.2-5.2-39.9-14.7-55.9-9.2-15.6-22.6-28.3-38.6-36.8-16.4-8.7-35.1-13-56.4-13s-39.9,4.8-56.4,14.3c-16.3,9.3-29.6,23.1-38.2,39.9h0v-.2l.2-.4ZM855,308h-119.2c1.8-15.6,7.8-27.7,19.1-37.3,11.1-9.5,25.3-14.6,39.9-14.3,16.4,0,29.9,4.7,40.7,13.9,10.8,9.1,17.3,21.6,19.5,37.7h0ZM1045.8,221.3h-10.5c-17.3,0-30.7,3-40.7,9.1-10.2,5.7-18.7,14.2-24.7,24.3l-5.2-33.4h-41.6v221.9h46.8v-111.4c0-19.1,4.3-35.1,13-47.7s22.5-19.1,42-19.1h20.8v-43.8h0,0ZM1065.6,159.3v223.6c0,20.8,4.7,36,14.3,45.5,9.5,10,24.7,14.7,45.9,14.7h45v-41.1h-35.5c-8.6,0-14.3-1.8-17.7-5.2s-5.2-10-5.2-18.6v-115.7h53.7v-41.1h-53.7v-62h-46.8ZM1188.5,272.9c-9.1,17.3-13.5,37.3-13.5,59.9s4.3,42.5,13.9,59.4c9.1,16.9,23,30.7,39.9,39.9,17.3,9.5,37.3,13.9,60.7,13.9s48.5-7,66.3-21.6c17.7-14.3,28.6-32.9,32.9-55.4h-46.8c-3.4,12.6-10,22.1-19.5,29.1-10,7-22.1,10-36.4,10s-32.9-5.7-43.8-16.9c-11.3-11.3-17.3-26.4-18.2-45.9v-2.6h167.3c.9-5.9,1.3-11.8,1.3-17.7-.4-21.2-5.2-39.9-14.8-55.9-9.2-15.6-22.6-28.4-38.6-36.9-16.4-8.6-35.1-13-56.4-13s-39.9,4.8-56.4,14.3c-16.3,9.3-29.5,23.2-38.1,39.9h.2v-.5ZM1345,308h-119.2c1.7-15.6,7.8-27.7,19.1-37.3,11.1-9.5,25.3-14.6,39.9-14.3,16.4,0,29.9,4.7,40.7,13.9,10.8,9.1,17.2,21.6,19.4,37.7h.1ZM1466.7,329.6l-83.2,113.6h50.7l58.9-80.6,58.5,80.6h54.6l-83.6-113.6,78.8-108.3h-51.2l-54.1,75-53.3-75h-54.6l78.5,108.3h0Z"/>
  <path class="st0" d="M248.9,412.5c-2.2,7.5-6.5,14.1-12.7,18.9-6.1,4.8-13.6,7.5-21.4,7.8h-51.9L57.4,218.6h105.4l52.7,110.4s38.4,65.4,33.3,83.5h0Z"/>
  <path class="st0" d="M248.9,412.5c5.1-18.1-33.3-83.5-33.3-83.5h57l-23.7,83.5h0Z"/>
  <path class="st0" d="M272.5,329h102.9v-110.4h-41.1c-7.8,0-15.4,2.5-21.7,7.1-6.3,4.6-11,11.1-13.4,18.5l-26.8,84.7h0Z"/>
</svg>